<svg width="28" height="28" viewBox="0 0 28 28" fill="none" xmlns="http://www.w3.org/2000/svg">
<g clip-path="url(#clip0_153_685)">
<path d="M24.5 0H3.5C1.567 0 0 1.567 0 3.5V24.5C0 26.433 1.567 28 3.5 28H24.5C26.433 28 28 26.433 28 24.5V3.5C28 1.567 26.433 0 24.5 0Z" fill="#7B519D"/>
<path fill-rule="evenodd" clip-rule="evenodd" d="M23.0735 18.8922C22.4064 18.3551 21.6935 17.8731 20.9918 17.3807C19.5924 16.3978 18.3124 16.3214 17.2681 17.9028C16.6817 18.7906 15.8608 18.8294 15.0024 18.44C12.6361 17.367 10.8088 15.7138 9.73847 13.3086C9.26499 12.2445 9.27122 11.2905 10.379 10.5379C10.9656 10.1399 11.5565 9.6689 11.5092 8.79921C11.4475 7.66521 8.69416 3.87553 7.60686 3.47554C7.15695 3.31 6.7089 3.32078 6.25116 3.47461C3.70163 4.332 2.64561 6.42878 3.65695 8.91148C6.67406 16.3185 11.9837 21.4749 19.2927 24.6222C19.7094 24.8014 20.1723 24.8731 20.4067 24.9374C22.0707 24.9541 24.0201 23.3509 24.583 21.7598C25.125 20.2291 23.9795 19.6215 23.0735 18.8922ZM14.8783 4.23493C20.2216 5.05661 22.6859 7.59739 23.3663 12.9792C23.4294 13.4763 23.2443 14.2243 23.9535 14.2381C24.6947 14.2523 24.5161 13.5153 24.5224 13.0177C24.585 7.94903 20.1655 3.25017 15.0328 3.07692C14.6455 3.13265 13.8442 2.80989 13.7943 3.67783C13.761 4.26299 14.4356 4.16685 14.8783 4.23493Z" fill="white"/>
<path fill-rule="evenodd" clip-rule="evenodd" d="M15.9235 5.71059C15.4095 5.64868 14.731 5.40653 14.6109 6.11965C14.4855 6.86816 15.2417 6.79214 15.7276 6.90092C19.0278 7.63849 20.1769 8.83964 20.7203 12.1132C20.7996 12.5905 20.642 13.3333 21.453 13.2102C22.0541 13.1187 21.837 12.4819 21.8873 12.11C21.9139 8.96712 19.2208 6.10653 15.9235 5.71059Z" fill="white"/>
<path fill-rule="evenodd" clip-rule="evenodd" d="M16.2265 8.28052C15.8834 8.289 15.5467 8.32613 15.4206 8.69276C15.2312 9.24073 15.6296 9.37137 16.0351 9.43651C17.3889 9.65384 18.1014 10.4521 18.2366 11.8021C18.2732 12.1685 18.5057 12.4654 18.8596 12.4236C19.3501 12.3651 19.3945 11.9286 19.3794 11.514C19.4037 9.99727 17.6894 8.24421 16.2265 8.28052Z" fill="white"/>
</g>
<defs>
<clipPath id="clip0_153_685">
<rect width="28" height="28" fill="white"/>
</clipPath>
</defs>
</svg>
