<svg width="304" height="241" viewBox="0 0 304 241" fill="none" xmlns="http://www.w3.org/2000/svg">
<path d="M151.855 240.686C235.676 240.686 303.625 236.828 303.625 232.068C303.625 227.309 235.676 223.45 151.855 223.45C68.0352 223.45 0.0854492 227.309 0.0854492 232.068C0.0854492 236.828 68.0352 240.686 151.855 240.686Z" fill="#F5F5F5"/>
<path d="M249.825 15.5137C250.279 17.4018 252.298 19.6857 254.678 19.3203C252.76 18.4448 252.157 14.1357 252.157 14.1357L249.825 15.5137Z" fill="#263238"/>
<path d="M250.06 15.5138C250.06 17.4475 251.437 20.1349 253.832 20.3253C252.197 19.031 251.766 14.9961 251.766 14.9961L250.06 15.5138Z" fill="#263238"/>
<path d="M201.097 221.555L194.89 220.626L195.446 206.39L201.653 207.318L201.097 221.555Z" fill="#FFC3BD"/>
<path d="M239.868 225.826H233.59L231.915 211.673H238.201L239.868 225.826Z" fill="#FFC3BD"/>
<path d="M232.987 225.117H240.65C240.773 225.117 240.892 225.159 240.987 225.236C241.081 225.312 241.145 225.419 241.167 225.536L242.177 230.972C242.198 231.106 242.19 231.244 242.151 231.375C242.112 231.506 242.045 231.627 241.953 231.73C241.862 231.833 241.748 231.915 241.62 231.971C241.493 232.027 241.354 232.055 241.214 232.053C238.748 232.015 236.956 231.87 233.848 231.87C231.938 231.87 226.177 232.068 223.539 232.068C220.901 232.068 220.659 229.533 221.754 229.297C226.639 228.269 230.365 226.853 231.93 225.491C232.223 225.243 232.6 225.11 232.987 225.117Z" fill="#263238"/>
<path d="M195.031 219.934L201.818 220.946C201.941 220.965 202.054 221.024 202.138 221.114C202.222 221.204 202.272 221.32 202.28 221.441L202.655 226.991C202.664 227.125 202.642 227.259 202.59 227.384C202.538 227.508 202.458 227.619 202.356 227.709C202.253 227.799 202.131 227.866 201.999 227.904C201.866 227.941 201.727 227.949 201.591 227.927C199.156 227.524 195.642 226.854 192.565 226.405C188.973 225.864 186.851 225.643 182.632 225.012C180.088 224.631 179.775 222.02 180.879 221.966C185.896 221.654 188.863 222.096 193.466 220.2C193.951 219.969 194.494 219.876 195.031 219.934Z" fill="#263238"/>
<path d="M227.007 43.9789C226.013 46.3771 224.933 48.5468 223.821 50.8308C222.71 53.1147 221.473 55.2616 220.197 57.4161C218.921 59.5706 217.551 61.7251 216.025 63.8187C214.483 65.9685 212.78 68.0043 210.929 69.9092L210.843 70.0006L210.694 70.1452L210.397 70.4269C210.201 70.6096 209.943 70.7999 209.716 70.9827C209.489 71.1654 209.191 71.3405 208.933 71.5004C208.633 71.6722 208.322 71.8248 208.002 71.9571C206.651 72.5158 205.157 72.6593 203.72 72.3683C202.598 72.1303 201.535 71.683 200.589 71.0512C199.863 70.5672 199.189 70.0137 198.577 69.3991C197.547 68.366 196.624 67.2363 195.822 66.0265C195.039 64.8922 194.389 63.7426 193.771 62.6159C191.435 58.1434 189.578 53.4494 188.229 48.6077L192.636 46.9861C193.755 49.0341 194.914 51.1505 196.143 53.1604C197.372 55.1702 198.593 57.1801 199.923 59.0225C201.088 60.761 202.474 62.3495 204.049 63.7502C204.325 63.9768 204.624 64.1758 204.941 64.344C205.184 64.4658 205.325 64.4506 205.231 64.4049C205.02 64.337 204.792 64.337 204.581 64.4049C204.543 64.4118 204.506 64.4246 204.471 64.443H204.432C204.432 64.443 204.432 64.443 204.432 64.4049L204.518 64.306C207.339 60.7497 209.815 56.9472 211.915 52.9472C213.035 50.9069 214.107 48.8209 215.156 46.7197C216.205 44.6185 217.23 42.4487 218.185 40.416L227.007 43.9789Z" fill="#FFC3BD"/>
<path d="M229.723 40.9489C230.843 46.6815 223.516 54.8809 223.516 54.8809L212.753 50.3739C212.753 50.3739 213.864 43.8038 218.17 39.0608C223.438 33.252 228.494 34.7061 229.723 40.9489Z" fill="#263238"/>
<path opacity="0.2" d="M223.907 42.9737C226.842 41.9535 229.011 42.2885 229.793 42.9737C229.261 48.4247 223.531 54.8501 223.531 54.8501L215.907 51.6602C216.471 49.1251 219.297 44.6029 223.907 42.9737Z" fill="black"/>
<path d="M193.012 48.6304L192.769 44.0625L186.46 45.0674C186.46 45.0674 185.294 49.4298 189.763 50.3966L193.012 48.6304Z" fill="#FFC3BD"/>
<path d="M192.127 42.1895L186.914 43.2096L186.46 45.0291L192.769 44.0242L192.127 42.1895Z" fill="#FFC3BD"/>
<path opacity="0.2" d="M195.446 206.396L195.156 213.728L201.371 214.657L201.661 207.325L195.446 206.396Z" fill="black"/>
<path opacity="0.2" d="M238.201 211.681H231.915L232.776 218.974H239.062L238.201 211.681Z" fill="black"/>
<path d="M257.918 41.0321C248.854 63.4984 247.743 88.1496 246.647 93.0525L213.528 87.4644C212.745 57.1033 220.573 40.324 222.671 36.3881C222.821 36.1061 223.045 35.8672 223.319 35.695C223.594 35.5228 223.91 35.4231 224.236 35.406C229.809 35.1497 235.395 35.3534 240.932 36.015C246.412 36.7383 257.942 41.0321 257.942 41.0321" fill="#263238"/>
<path d="M228.056 88.5917C228.056 88.3176 227.57 60.6364 233.981 43.1719L234.357 43.2937C227.962 60.6973 228.447 88.31 228.447 88.5841L228.056 88.5917Z" fill="white"/>
<path d="M235.97 45.6688C235.805 46.2093 235.469 46.6052 235.187 46.5443C234.905 46.4834 234.835 45.9885 234.991 45.4404C235.148 44.8923 235.492 44.504 235.774 44.5649C236.056 44.6258 236.126 45.1206 235.97 45.6688Z" fill="white"/>
<path d="M234.427 51.9801C234.302 52.5359 233.989 52.947 233.715 52.9013C233.441 52.8556 233.324 52.3684 233.449 51.8126C233.574 51.2568 233.887 50.8534 234.161 50.899C234.435 50.9447 234.553 51.4548 234.427 51.9801Z" fill="white"/>
<path d="M233.23 58.5278C233.112 59.0836 232.807 59.4947 232.533 59.4566C232.259 59.4186 232.134 58.9313 232.244 58.3756C232.353 57.8198 232.666 57.4011 232.94 57.4468C233.214 57.4924 233.339 57.9721 233.23 58.5278Z" fill="white"/>
<path d="M232.212 64.9377C232.134 65.501 231.852 65.935 231.578 65.9121C231.304 65.8893 231.148 65.4097 231.226 64.8463C231.304 64.2829 231.586 63.849 231.86 63.8794C232.134 63.9099 232.291 64.3971 232.212 64.9377Z" fill="white"/>
<path opacity="0.2" d="M254.701 50.0696C253.605 53.5869 252.666 57.0889 251.875 60.4844C250.834 54.3406 250.373 48.0293 250.373 48.0293L254.701 50.0696Z" fill="black"/>
<path d="M248.353 22.2432C246.678 26.4989 244.517 33.9978 247.155 37.4694C245.652 39.5935 240.298 42.7986 234.169 43.2325C229.794 41.4434 231.234 37.0507 232.995 35.391C238.255 35.0636 238.701 31.5312 238.435 27.9606L248.353 22.2432Z" fill="#FFC3BD"/>
<path opacity="0.2" d="M244.345 24.5811L238.475 27.9613C238.549 28.7946 238.549 29.6327 238.475 30.466C240.447 30.5193 243.469 28.9053 244.024 26.9716C244.281 26.2005 244.389 25.3903 244.345 24.5811Z" fill="black"/>
<path d="M236.995 7.16163C230.96 6.40032 232.361 14.4855 234.701 17.5307C242.474 12.7877 240.65 7.63365 236.995 7.16163Z" fill="#263238"/>
<path d="M235.688 8.94336C235.555 11.7983 233.253 15.6201 229.708 15.7038C231.29 14.5191 232.459 12.8899 233.058 11.037L235.688 8.94336Z" fill="#263238"/>
<path d="M250.075 15.711C248.635 21.6111 248.102 25.136 244.455 27.6712C238.975 31.4777 231.891 27.4809 231.492 21.2838C231.132 15.7034 233.551 6.98635 239.977 5.63121C241.393 5.32393 242.865 5.37392 244.255 5.77641C245.645 6.17891 246.906 6.92053 247.918 7.93074C248.93 8.94096 249.659 10.1862 250.037 11.548C250.415 12.9098 250.428 14.3429 250.075 15.711Z" fill="#FFC3BD"/>
<path d="M250.654 9.62847C244.611 8.86716 246.012 16.9447 248.353 19.9899C255.891 15.955 254.302 10.0929 250.654 9.62847Z" fill="#263238"/>
<path d="M250.318 10.5573C246.85 12.6052 243.234 9.58282 241.574 8.27337C239.915 6.96391 236.181 9.52192 231.758 8.50176C229.144 7.89271 228.776 5.388 228.776 3.78924C230.678 7.18469 233.825 7.68716 235.696 6.24828C237.566 4.8094 239.821 2.18287 242.521 3.53801C245.222 4.89314 249.049 6.58326 250.779 6.16454C253.793 5.42606 254.231 8.24291 250.318 10.5573Z" fill="#263238"/>
<path d="M241.128 7.29883C238.881 9.87967 233.887 11.8667 230.506 9.4305C232.868 9.43174 235.175 8.72753 237.112 7.41303L241.128 7.29883Z" fill="#263238"/>
<path d="M244.392 8.27344C244.009 11.1055 245.574 15.2623 249.05 15.9551C247.707 14.5173 246.851 12.7126 246.599 10.7858L244.392 8.27344Z" fill="#263238"/>
<path d="M251.132 15.4219C250.099 18.0941 246.701 21.0404 243.304 20.0507C246.271 19.1295 247.625 15.7036 247.625 15.7036L251.132 15.4219Z" fill="#263238"/>
<path d="M236.416 5.07585C236.737 4.45919 238.764 2.1981 243.257 1.45962C250.099 0.348109 254.005 5.7991 257.457 2.76147C258.466 1.87834 259.476 3.81208 258.302 5.0454C257.269 6.16453 257.872 14.7141 253.379 13.8995C250.608 13.3894 236.416 5.07585 236.416 5.07585Z" fill="#12BCE3"/>
<path opacity="0.2" d="M236.416 5.07585C236.737 4.45919 238.764 2.1981 243.257 1.45962C250.099 0.348109 254.005 5.7991 257.457 2.76147C258.466 1.87834 259.476 3.81208 258.302 5.0454C257.269 6.16453 257.872 14.7141 253.379 13.8995C250.608 13.3894 236.416 5.07585 236.416 5.07585Z" fill="white"/>
<path d="M233.645 7.03195C232.385 6.75788 235.704 4.47395 236.58 4.44349C237.457 4.41304 253.676 9.58234 254.067 14.1502C253.815 14.8619 253.482 15.5437 253.073 16.1829C253.035 16.2405 252.984 16.2899 252.926 16.3282C252.867 16.3665 252.801 16.3928 252.731 16.4056C252.662 16.4184 252.59 16.4174 252.521 16.4027C252.452 16.388 252.387 16.3598 252.33 16.32C250.286 14.9115 241.285 8.69922 233.645 7.03195Z" fill="#12BCE3"/>
<path d="M258.834 6.4157C260.658 6.4157 262.137 4.97731 262.137 3.20297C262.137 1.42863 260.658 -0.00976562 258.834 -0.00976562C257.01 -0.00976562 255.531 1.42863 255.531 3.20297C255.531 4.97731 257.01 6.4157 258.834 6.4157Z" fill="#12BCE3"/>
<path d="M251.633 21.4136C250.843 22.5832 249.611 23.4036 248.204 23.6976C246.373 24.0478 245.668 22.3653 246.349 20.7056C246.975 19.183 248.698 17.2416 250.427 17.6604C252.157 18.0791 252.619 19.9671 251.633 21.4136Z" fill="#FFC3BD"/>
<path d="M193.575 211.977L204.095 213.546C204.095 213.546 206.264 177.901 210.076 159.226C211.242 153.539 214.459 146.284 217.324 137.909C220.933 127.38 225.269 116.044 228.768 107.175C232.463 97.8339 235.187 91.1268 235.187 91.1268L213.528 87.4648C213.528 87.4648 194.859 136.653 192.26 155.13C189.552 174.346 193.575 211.977 193.575 211.977Z" fill="#12BCE3"/>
<path opacity="0.3" d="M193.575 211.977L204.095 213.546C204.095 213.546 206.264 177.901 210.076 159.226C211.242 153.539 214.459 146.284 217.324 137.909C220.933 127.38 225.269 116.044 228.768 107.175C232.463 97.8339 235.187 91.1268 235.187 91.1268L213.528 87.4648C213.528 87.4648 194.859 136.653 192.26 155.13C189.552 174.346 193.575 211.977 193.575 211.977Z" fill="black"/>
<path opacity="0.2" d="M217.324 137.909C220.933 127.38 225.269 116.044 228.768 107.175L226.999 102.181C220.901 107.921 217.387 127.235 217.324 137.909Z" fill="black"/>
<path d="M223.845 89.208C223.845 89.208 222.083 141.83 222.866 159.713C223.727 179.309 229.872 217.573 229.872 217.573H241.378C241.378 217.573 238.819 182.88 239.03 163.763C239.312 141.99 246.615 93.0679 246.615 93.0679L223.845 89.208Z" fill="#12BCE3"/>
<path opacity="0.3" d="M223.845 89.208C223.845 89.208 222.083 141.83 222.866 159.713C223.727 179.309 229.872 217.573 229.872 217.573H241.378C241.378 217.573 238.819 182.88 239.03 163.763C239.312 141.99 246.615 93.0679 246.615 93.0679L223.845 89.208Z" fill="black"/>
<path d="M228.494 217.801H242.044V213.865L226.897 213.606L228.494 217.801Z" fill="#12BCE3"/>
<path d="M192.221 212.016L204.753 213.888L205.371 209.952L191.399 207.653L192.221 212.016Z" fill="#12BCE3"/>
<path d="M240.995 15.8939C240.909 16.3811 240.572 16.7237 240.212 16.6552C239.852 16.5867 239.688 16.1604 239.774 15.6807C239.86 15.2011 240.197 14.8433 240.557 14.9194C240.917 14.9955 241.081 15.4067 240.995 15.8939Z" fill="#263238"/>
<path d="M235.351 14.9115C235.265 15.3987 234.928 15.7413 234.608 15.6728C234.287 15.6043 234.083 15.1779 234.169 14.6983C234.255 14.2187 234.592 13.8609 234.952 13.937C235.312 14.0131 235.437 14.4547 235.351 14.9115Z" fill="#263238"/>
<path d="M236.58 15.3994C235.721 16.784 234.668 18.0448 233.449 19.1451C233.753 19.4452 234.12 19.6765 234.526 19.8226C234.932 19.9687 235.366 20.0259 235.798 19.9901L236.58 15.3994Z" fill="#ED847E"/>
<path d="M237.637 21.6419C238.21 21.674 238.784 21.5912 239.322 21.3987C239.861 21.2062 240.353 20.908 240.768 20.5228C240.782 20.5094 240.793 20.4934 240.801 20.4757C240.808 20.4581 240.812 20.4392 240.812 20.42C240.812 20.4009 240.808 20.382 240.801 20.3644C240.793 20.3467 240.782 20.3307 240.768 20.3173C240.739 20.2916 240.702 20.2773 240.662 20.2773C240.623 20.2773 240.586 20.2916 240.557 20.3173C240.093 20.7329 239.536 21.0364 238.929 21.2031C238.323 21.3698 237.684 21.3949 237.066 21.2765C237.026 21.272 236.987 21.282 236.955 21.3046C236.923 21.3272 236.901 21.3606 236.893 21.3983C236.887 21.4356 236.895 21.4741 236.917 21.5054C236.939 21.5367 236.973 21.5584 237.011 21.5658C237.218 21.6041 237.427 21.6296 237.637 21.6419Z" fill="#263238"/>
<path d="M242.529 14.3259C242.578 14.3373 242.629 14.3373 242.678 14.3259C242.747 14.2902 242.8 14.2299 242.824 14.1577C242.849 14.0854 242.844 14.0066 242.811 13.9377C242.603 13.5249 242.298 13.1661 241.919 12.8908C241.541 12.6155 241.101 12.4316 240.635 12.3541C240.556 12.3461 240.477 12.3688 240.416 12.4173C240.354 12.4659 240.315 12.5363 240.306 12.613C240.298 12.6897 240.321 12.7665 240.371 12.8265C240.421 12.8864 240.494 12.9247 240.572 12.9327C240.94 12.9964 241.286 13.1443 241.583 13.3641C241.879 13.5838 242.118 13.8692 242.279 14.1965C242.306 14.2372 242.343 14.2704 242.387 14.2931C242.431 14.3158 242.48 14.3271 242.529 14.3259Z" fill="#263238"/>
<path d="M232.737 12.552C232.785 12.5548 232.833 12.5458 232.877 12.5259C232.921 12.5059 232.958 12.4757 232.987 12.4378C233.196 12.1349 233.476 11.8848 233.804 11.7087C234.132 11.5325 234.499 11.4354 234.874 11.4253C234.953 11.4274 235.031 11.3991 235.089 11.3464C235.148 11.2938 235.183 11.221 235.187 11.1436C235.187 11.0674 235.157 10.9941 235.103 10.9388C235.049 10.8836 234.975 10.8506 234.897 10.8467C234.425 10.8535 233.962 10.9704 233.547 11.1877C233.131 11.405 232.776 11.7163 232.51 12.0952C232.486 12.1254 232.468 12.16 232.458 12.1969C232.448 12.2338 232.446 12.2723 232.452 12.31C232.458 12.3478 232.472 12.3839 232.492 12.4164C232.513 12.4488 232.54 12.4768 232.572 12.4987C232.62 12.5333 232.677 12.552 232.737 12.552Z" fill="#263238"/>
<path d="M230.866 226.191C231.423 226.175 231.977 226.101 232.518 225.97C232.547 225.961 232.573 225.946 232.593 225.924C232.614 225.903 232.628 225.877 232.635 225.848C232.639 225.821 232.636 225.793 232.625 225.767C232.614 225.742 232.596 225.72 232.573 225.703C232.346 225.566 230.373 224.356 229.661 224.699C229.583 224.738 229.518 224.797 229.471 224.87C229.425 224.942 229.398 225.024 229.395 225.11C229.371 225.249 229.383 225.391 229.431 225.524C229.479 225.658 229.561 225.777 229.669 225.871C230.019 226.107 230.441 226.22 230.866 226.191ZM232.095 225.764C231.015 225.97 230.201 225.932 229.864 225.65C229.792 225.585 229.738 225.504 229.706 225.414C229.675 225.323 229.667 225.227 229.684 225.132C229.684 225.097 229.694 225.063 229.712 225.032C229.729 225.001 229.755 224.976 229.786 224.957C230.154 224.775 231.289 225.3 232.095 225.795V225.764Z" fill="#12BCE3"/>
<path d="M232.479 225.971C232.507 225.979 232.537 225.979 232.565 225.971C232.59 225.949 232.607 225.921 232.614 225.889C232.621 225.858 232.617 225.825 232.604 225.796C232.604 225.72 232.526 223.953 231.821 223.375C231.737 223.302 231.637 223.248 231.529 223.217C231.421 223.185 231.307 223.177 231.195 223.192C231.082 223.191 230.973 223.227 230.885 223.295C230.796 223.363 230.735 223.458 230.71 223.565C230.545 224.25 231.743 225.59 232.377 225.933L232.479 225.971ZM231.32 223.512C231.445 223.511 231.566 223.557 231.657 223.641C232.077 224.195 232.307 224.864 232.314 225.552C231.688 225.072 230.929 224.029 231.031 223.664C231.031 223.626 231.031 223.535 231.25 223.512H231.32Z" fill="#12BCE3"/>
<path d="M194.295 220.679C194.322 220.673 194.348 220.66 194.368 220.641C194.389 220.622 194.404 220.599 194.413 220.573C194.421 220.544 194.42 220.513 194.41 220.485C194.4 220.456 194.382 220.431 194.358 220.413C194.099 220.23 191.798 218.631 190.976 218.928C190.9 218.956 190.832 219.002 190.779 219.062C190.725 219.121 190.688 219.193 190.671 219.271C190.633 219.402 190.628 219.54 190.658 219.673C190.688 219.805 190.752 219.929 190.843 220.032C191.43 220.717 193.246 220.748 194.28 220.702L194.295 220.679ZM191.164 219.157C191.657 219.073 192.933 219.773 193.841 220.375C192.44 220.375 191.422 220.184 191.094 219.796C191.036 219.73 190.996 219.65 190.979 219.565C190.961 219.48 190.965 219.392 190.992 219.309C190.996 219.279 191.008 219.25 191.027 219.226C191.046 219.201 191.072 219.183 191.101 219.172L191.164 219.157Z" fill="#12BCE3"/>
<path d="M194.295 220.679H194.342C194.364 220.667 194.383 220.649 194.397 220.628C194.411 220.607 194.419 220.582 194.42 220.557C194.42 220.489 194.514 218.837 193.826 218.083C193.728 217.974 193.608 217.885 193.473 217.822C193.338 217.759 193.192 217.724 193.043 217.718C192.636 217.718 192.487 217.878 192.432 218.038C192.213 218.7 193.489 220.23 194.193 220.672C194.226 220.681 194.261 220.684 194.295 220.679ZM192.878 217.999H193.027C193.137 218.004 193.244 218.03 193.343 218.077C193.441 218.125 193.528 218.191 193.599 218.274C193.982 218.866 194.166 219.561 194.123 220.261C193.434 219.697 192.557 218.517 192.722 218.121C192.73 218.083 192.745 218.022 192.878 217.999Z" fill="#12BCE3"/>
<path d="M258.928 44.748C259.906 46.7503 260.705 48.6612 261.527 50.6406C262.349 52.62 263.092 54.607 263.781 56.6245C265.219 60.7217 266.339 64.9181 267.131 69.1785C267.311 70.29 267.491 71.3863 267.585 72.5359L267.671 73.3886V73.6017V74.0357C267.691 74.3425 267.691 74.6501 267.671 74.9569C267.528 76.2158 267.036 77.4131 266.247 78.4209C265.617 79.2049 264.845 79.8706 263.969 80.385C263.296 80.7791 262.586 81.1081 261.848 81.3671C260.616 81.7961 259.341 82.0948 258.043 82.2579C255.753 82.5552 253.438 82.6393 251.132 82.5091C248.901 82.4063 246.68 82.1519 244.486 81.7478L244.736 77.1799C248.701 76.8082 252.628 76.1233 256.478 75.132C257.263 74.8987 258.025 74.5981 258.756 74.2336C259.366 73.9443 259.711 73.5104 259.468 73.655C259.311 73.8273 259.206 74.0378 259.163 74.2641C259.163 74.3174 259.163 74.3783 259.163 74.4164V74.462V74.2945L259.037 73.617C258.897 72.7186 258.67 71.7974 258.458 70.8763C258.004 69.0339 257.472 67.1611 256.846 65.2958C256.219 63.4306 255.562 61.5502 254.865 59.6926C254.169 57.835 253.409 55.9622 252.666 54.1046C251.922 52.247 251.1 50.3665 250.317 48.6155L258.928 44.748Z" fill="#FFC3BD"/>
<path d="M257.918 41.0325C261.167 42.7454 263.398 53.0384 263.398 53.0384L253.77 58.7939C253.77 58.7939 251.28 54.0433 249.449 50.1225C245.973 42.6388 251.515 37.6675 257.918 41.0325Z" fill="#263238"/>
<path d="M245.551 77.0731L239.218 76.8066L241.997 82.6687C241.997 82.6687 247.97 82.3185 247.179 79.5397L245.551 77.0731Z" fill="#FFC3BD"/>
<path d="M235.046 80.8414L238.2 84.6632L242.02 82.6381L239.21 76.7988L235.046 80.8414Z" fill="#FFC3BD"/>
<path d="M87.4557 48.501C87.8392 50.4423 88.2384 52.5283 88.7629 54.523C89.2873 56.5176 89.7492 58.5503 90.3284 60.5297C90.6102 61.527 90.9155 62.5167 91.2286 63.4912C91.5417 64.4657 91.8548 65.4478 92.1914 66.4223C92.528 67.3967 92.8802 68.3484 93.2638 69.2848C93.4516 69.7644 93.6395 70.2364 93.8508 70.6932L94.1561 71.386L94.3127 71.7286L94.3909 71.9037V71.995L94.3518 71.9265C94.2892 71.8276 94.2187 71.7438 94.117 71.6144C94.0038 71.5054 93.8836 71.4037 93.7569 71.3099C93.5195 71.1538 93.2539 71.0428 92.9741 70.9825C92.5436 70.9292 92.4732 70.9825 92.4888 70.9825C92.7621 70.9105 93.025 70.8057 93.2716 70.6704C94.1112 70.2269 94.9123 69.7177 95.6669 69.1478C97.3028 67.9753 98.9466 66.6506 100.551 65.2803C102.156 63.9099 103.776 62.5091 105.357 61.0778C106.939 59.6466 108.535 58.1925 110.109 56.7536L112.59 58.8853C111.259 60.6287 109.874 62.2807 108.457 63.9404C107.04 65.6 105.553 67.1988 104.035 68.7975C102.486 70.4163 100.851 71.9538 99.1345 73.4035C98.2002 74.1957 97.2058 74.9185 96.16 75.5656C95.4753 75.9885 94.732 76.3141 93.9526 76.5325C93.2683 76.723 92.5488 76.762 91.847 76.6467C91.2831 76.5527 90.748 76.3368 90.2814 76.0148C89.8161 75.7038 89.4283 75.2954 89.1464 74.8195L89.0525 74.6596L88.9899 74.5454L88.9429 74.4465L88.849 74.2638L88.6533 73.8831L88.2776 73.1218C88.0114 72.6193 87.7766 72.1169 87.5496 71.5992C87.0643 70.5866 86.6338 69.5665 86.2111 68.5539C85.3735 66.506 84.6456 64.4276 83.9724 62.334C83.2992 60.2404 82.7043 58.1392 82.1798 56.0151C81.6554 53.8911 81.2014 51.7975 80.8335 49.544L87.4557 48.501Z" fill="#B55B52"/>
<path d="M84.8256 41.4292C88.6064 42.1905 90.9233 60.2107 90.9233 60.2107L81.1466 60.6066C81.1466 60.6066 77.3502 49.4382 78.4852 44.954C79.3071 41.688 80.857 40.6602 84.8256 41.4292Z" fill="#12BCE3"/>
<path d="M80.7474 60.0274C80.703 60.5583 80.7723 61.0923 80.9509 61.5958C81.1857 62.0221 90.0231 61.0019 90.7433 60.7888C91.4634 60.5756 91.526 59.2661 91.526 59.0149C91.526 58.7637 80.7474 59.3727 80.7474 60.0274Z" fill="#12BCE3"/>
<path opacity="0.1" d="M80.7474 60.0274C80.703 60.5583 80.7723 61.0923 80.9509 61.5958C81.1857 62.0221 90.0231 61.0019 90.7433 60.7888C91.4634 60.5756 91.526 59.2661 91.526 59.0149C91.526 58.7637 80.7474 59.3727 80.7474 60.0274Z" fill="black"/>
<path opacity="0.2" d="M88.5278 60.3088L88.1912 59.0602L85.9055 50.4727L85.1932 59.2658L85.0993 60.4458L85.0132 61.4964C86.2969 61.3822 87.6589 61.23 88.7391 61.0929L88.5278 60.3088Z" fill="black"/>
<path d="M109.138 58.3071L109.498 55.6806L114.281 54.8584C114.281 54.8584 113.788 58.9086 111.259 59.8754L109.138 58.3071Z" fill="#B55B52"/>
<path d="M109.756 51.9424L114.696 51.5693L114.281 54.8201L109.498 55.6424L109.756 51.9424Z" fill="#B55B52"/>
<path d="M78.0938 224.189H84.622L85.6083 209.48H79.08L78.0938 224.189Z" fill="#B55B52"/>
<path d="M40.1611 211.285L46.5172 212.739L52.02 198.891L45.664 197.437L40.1611 211.285Z" fill="#B55B52"/>
<path d="M47.5034 212.214L40.9282 209.046C40.816 208.991 40.6871 208.977 40.565 209.006C40.4428 209.035 40.3356 209.107 40.2629 209.206L36.9126 213.919C36.8338 214.04 36.782 214.176 36.7606 214.317C36.7392 214.459 36.7488 214.604 36.7887 214.741C36.8286 214.879 36.8978 215.008 36.992 215.118C37.0862 215.228 37.2032 215.317 37.3353 215.381C39.6836 216.446 40.8186 216.842 43.7148 218.236C45.4917 219.088 49.7578 222.156 52.2156 223.336C54.6735 224.516 56.0042 222.217 55.0884 221.517C52.1248 219.288 49.7833 216.372 48.2783 213.036C48.1258 212.683 47.8519 212.392 47.5034 212.214Z" fill="#263238"/>
<path d="M85.1231 223.45H77.7886C77.6621 223.449 77.5393 223.492 77.4429 223.572C77.3466 223.652 77.2831 223.763 77.2642 223.884L76.4266 229.533C76.4112 229.676 76.4269 229.82 76.4727 229.956C76.5185 230.093 76.5933 230.218 76.6923 230.324C76.7912 230.431 76.9122 230.516 77.0471 230.573C77.1821 230.631 77.3281 230.661 77.4755 230.66C80.0352 230.614 81.2641 230.47 84.5204 230.47C86.5086 230.47 90.6103 230.668 93.35 230.668C96.0896 230.668 96.2384 228.033 95.0955 227.797C89.9841 226.724 87.9646 225.247 86.2425 223.839C85.9289 223.583 85.5319 223.446 85.1231 223.45Z" fill="#263238"/>
<g opacity="0.2">
<path d="M85.6083 209.48L85.0995 217.063H78.5713L79.0801 209.48H85.6083Z" fill="black"/>
<path d="M45.6637 197.437L52.0197 198.898L48.9904 206.511L42.8223 204.578L45.6637 197.437Z" fill="black"/>
</g>
<path d="M84.8255 41.4284C84.8255 41.4284 88.0113 42.2811 84.481 79.8747L58.0471 81.6866C57.734 71.1805 57.2644 64.7246 50.5874 43.621C54.235 42.6233 57.9526 41.8854 61.7105 41.4132C65.6814 40.8479 69.6892 40.5629 73.7024 40.5605C78.8921 40.6671 84.8255 41.4284 84.8255 41.4284Z" fill="#12BCE3"/>
<path opacity="0.2" d="M52.3958 48.6914L52.2549 49.0645C55.2529 59.0072 56.6227 65.2423 57.2959 70.64C58.4556 68.7437 59.1219 66.6008 59.2371 64.3973C59.6598 56.7842 55.9652 49.171 52.3958 48.6914Z" fill="black"/>
<path d="M54.5639 17.1505C52.0356 19.3735 54.65 22.1371 54.0003 24.9692C53.3507 27.8013 54.7831 28.4788 54.517 30.2984C54.3088 32.0574 53.7277 33.7554 52.8105 35.2849C52.8105 35.2849 75.4402 37.1502 79.7924 33.7623C81.9685 32.0722 76.8805 25.0986 77.6163 22.4721C78.3521 19.8455 80.4108 16.3816 77.9607 12.91C74.8297 8.49439 65.4991 5.63948 58.1333 11.6843C53.1315 12.3771 54.5639 17.1505 54.5639 17.1505Z" fill="#263238"/>
<path d="M62.415 28.1436C63.4483 31.8511 65.5461 39.213 63.0021 41.9081C63.0021 41.9081 65.7418 42.6694 69.5304 43.5906C72.27 42.3496 72.951 41.398 72.951 41.398C69.82 40.5834 69.6947 36.7388 70.2348 33.7849L62.415 28.1436Z" fill="#B55B52"/>
<path d="M62.415 41.2998C62.8298 40.5918 62.0627 38.8636 61.9296 37.4019C61.7966 35.9401 63.3934 36.3589 65.2877 36.8004C67.182 37.242 72.0116 35.2778 72.2073 36.9603C72.403 38.6428 72.5282 40.6374 73.2484 40.9267C73.9685 41.216 72.7553 43.4314 69.4598 44.1319C66.1644 44.8323 61.4756 42.8985 62.415 41.2998Z" fill="#12BCE3"/>
<path opacity="0.1" d="M62.6812 38.376C65.1767 38.8004 67.7178 38.9129 70.2426 38.7109C69.1703 39.4037 64.7163 39.7844 62.6812 38.376Z" fill="black"/>
<path opacity="0.2" d="M65.6087 30.4355L70.2348 33.7625C70.0943 34.4548 70.0183 35.1581 70.0078 35.8637C68.3483 35.7419 65.6635 34.5542 65.1782 32.8185C64.9512 32.0267 65.4913 30.839 65.6087 30.4355Z" fill="black"/>
<path d="M57.5304 21.1395C58.9786 27.2833 59.456 29.9098 63.2211 32.5591C68.8883 36.5713 76.3246 33.4956 76.7942 27.0549C77.2169 21.2613 74.7747 12.1864 68.1056 10.7247C66.6356 10.3942 65.103 10.4353 63.6539 10.844C62.2048 11.2527 60.8875 12.0154 59.8273 13.0595C58.7671 14.1036 57.9994 15.3943 57.5974 16.8087C57.1953 18.2231 57.1723 19.714 57.5304 21.1395Z" fill="#B55B52"/>
<path d="M60.1998 11.4253C63.7457 10.4737 70.7358 6.69761 75.5811 14.4173C75.1271 15.4755 70.3288 15.9399 70.3288 15.9399C70.3288 15.9399 69.6556 13.2068 68.3014 12.3389C68.7585 13.6121 69.1016 14.9214 69.3268 16.2521C69.3268 16.2521 63.597 18.2239 60.9278 18.0488C58.2585 17.8737 57.0061 12.278 60.1998 11.4253Z" fill="#263238"/>
<path d="M84.4813 79.875C84.4813 79.875 93.1465 128.325 94.1093 147.632C95.1191 167.761 86.493 215.556 86.493 215.556H77.6635C77.6635 215.556 80.2231 169.953 78.0157 150.273C75.6126 128.858 65.0923 81.1997 65.0923 81.1997L84.4813 79.875Z" fill="#263238"/>
<path d="M76.9038 215.906H87.2597L88.019 212.694L76.4185 212.298L76.9038 215.906Z" fill="#12BCE3"/>
<path opacity="0.2" d="M73.945 92.8024C81.3656 105.067 77.8588 128.584 76.1681 137.4C74.0546 124.519 70.9236 108.813 68.5361 97.2865C69.0449 90.6403 70.5243 87.1458 73.945 92.8024Z" fill="black"/>
<path d="M77.4912 80.3848C77.4912 80.3848 75.1429 131.53 71.8162 148.141C67.8397 167.844 51.0651 204.996 51.0651 204.996L42.6348 202.019C42.6348 202.019 51.8479 163.193 54.6971 150.631C59.8712 127.792 52.0436 96.3951 58.0239 81.7323L77.4912 80.3848Z" fill="#263238"/>
<path d="M41.2412 202.4L51.5815 206.161L53.9063 203.397L41.9379 198.434L41.2412 202.4Z" fill="#12BCE3"/>
<path d="M67.9885 21.147C68.0746 21.6495 68.419 22.0149 68.7712 21.9616C69.1235 21.9083 69.3192 21.4515 69.2331 20.949C69.147 20.4466 68.8025 20.0735 68.4503 20.1345C68.0981 20.1954 67.9024 20.6369 67.9885 21.147Z" fill="#263238"/>
<path d="M73.8591 20.241C73.9452 20.7435 74.2896 21.1089 74.6418 21.0557C74.9941 21.0024 75.1898 20.5456 75.1037 20.0431C75.0176 19.5406 74.6731 19.1676 74.3209 19.2209C73.9687 19.2742 73.773 19.6929 73.8591 20.241Z" fill="#263238"/>
<path d="M74.1724 19.2366L75.3622 18.6885C75.3622 18.6885 74.8847 19.7391 74.1724 19.2366Z" fill="#263238"/>
<path d="M72.2075 21.3984C72.8616 22.4793 73.6678 23.4658 74.6028 24.3295C74.3693 24.5554 74.0879 24.7289 73.7783 24.8381C73.4687 24.9472 73.1383 24.9893 72.8103 24.9614L72.2075 21.3984Z" fill="#A02724"/>
<path d="M70.3132 27.3976C70.5756 27.3965 70.8375 27.3736 71.096 27.3291C71.1155 27.3261 71.1342 27.3194 71.1511 27.3093C71.1679 27.2993 71.1826 27.2861 71.1942 27.2706C71.2059 27.255 71.2142 27.2374 71.2189 27.2187C71.2235 27.2 71.2243 27.1806 71.2212 27.1616C71.2181 27.1426 71.2112 27.1244 71.2009 27.108C71.1906 27.0916 71.177 27.0773 71.161 27.066C71.145 27.0547 71.1269 27.0465 71.1077 27.042C71.0885 27.0376 71.0685 27.0368 71.049 27.0398C70.4043 27.1558 69.7407 27.1232 69.1113 26.9447C68.4819 26.7663 67.9043 26.4468 67.4248 26.012C67.4119 25.9942 67.3953 25.9793 67.376 25.9683C67.3567 25.9572 67.3352 25.9504 67.313 25.9481C67.2908 25.9458 67.2683 25.9482 67.247 25.9551C67.2258 25.962 67.2064 25.9733 67.19 25.9881C67.1736 26.0029 67.1607 26.021 67.1521 26.0411C67.1435 26.0612 67.1395 26.0828 67.1402 26.1045C67.141 26.1263 67.1465 26.1476 67.1564 26.1671C67.1663 26.1866 67.1805 26.2038 67.1978 26.2176C67.6102 26.606 68.0982 26.9105 68.6332 27.1131C69.1681 27.3158 69.7393 27.4125 70.3132 27.3976Z" fill="#263238"/>
<path d="M59.5188 25.4791C62.5794 21.9238 63.5892 16.0236 59.3545 12.377C56.6148 15.072 54.196 23.2866 59.5188 25.4791Z" fill="#263238"/>
<path d="M56.4818 26.286C57.0357 27.3778 58.0083 28.2143 59.1902 28.6156C60.7557 29.1257 61.6324 27.7781 61.2645 26.286C60.9357 24.9461 59.6989 23.0732 58.1334 23.2027C57.7805 23.237 57.442 23.3563 57.1483 23.5497C56.8547 23.7431 56.6151 24.0045 56.4513 24.3104C56.2874 24.6163 56.2044 24.957 56.2097 25.3019C56.215 25.6468 56.3085 25.985 56.4818 26.286Z" fill="#B55B52"/>
<path d="M65.6477 19.6325C65.7134 19.6402 65.7798 19.6265 65.8365 19.5934C65.8932 19.5603 65.9369 19.5098 65.9608 19.4498C66.5322 18.1784 68.3091 17.8054 68.3561 17.7977C68.3956 17.7905 68.4331 17.7756 68.4665 17.7539C68.4999 17.7322 68.5285 17.7042 68.5504 17.6714C68.5724 17.6387 68.5873 17.602 68.5942 17.5635C68.6012 17.525 68.6 17.4856 68.5909 17.4475C68.5854 17.4068 68.5712 17.3676 68.5493 17.3325C68.5274 17.2973 68.4983 17.267 68.4637 17.2434C68.4291 17.2198 68.3898 17.2034 68.3484 17.1953C68.307 17.1872 68.2643 17.1875 68.223 17.1963C68.1369 17.1963 66.0861 17.6379 65.3894 19.1986C65.3725 19.2345 65.3632 19.2733 65.362 19.3128C65.3607 19.3523 65.3676 19.3916 65.3822 19.4285C65.3967 19.4654 65.4187 19.499 65.4469 19.5275C65.475 19.556 65.5087 19.5788 65.546 19.5944C65.5759 19.6156 65.611 19.6287 65.6477 19.6325Z" fill="#263238"/>
<path d="M75.9567 17.1274C76.0099 17.1349 76.0642 17.1283 76.1138 17.1082C76.1634 17.0881 76.2065 17.0553 76.2385 17.0132C76.263 16.9819 76.2808 16.9461 76.2909 16.9079C76.301 16.8698 76.3032 16.8301 76.2973 16.7911C76.2915 16.7522 76.2778 16.7147 76.2569 16.681C76.2361 16.6472 76.2085 16.6178 76.1759 16.5945C75.7946 16.2938 75.3443 16.087 74.8633 15.9915C74.3823 15.8961 73.8847 15.9149 73.4127 16.0464C73.3359 16.0726 73.273 16.1275 73.2378 16.1989C73.2025 16.2702 73.1979 16.3523 73.2249 16.427C73.2519 16.5017 73.3083 16.563 73.3817 16.5972C73.4551 16.6315 73.5394 16.636 73.6163 16.6097C73.9922 16.5143 74.3859 16.5067 74.7654 16.5874C75.145 16.6681 75.4995 16.8349 75.8002 17.0741C75.8459 17.1064 75.9003 17.1249 75.9567 17.1274Z" fill="#263238"/>
<path d="M50.2196 214.429H50.2979C50.4406 214.387 50.5697 214.309 50.6725 214.204C50.7753 214.098 50.8485 213.969 50.885 213.828C50.9189 213.744 50.9295 213.652 50.9158 213.563C50.902 213.473 50.8644 213.389 50.8067 213.318C50.2744 212.686 47.9339 212.952 47.6756 212.983C47.6444 212.984 47.6145 212.995 47.5904 213.014C47.5663 213.033 47.5495 213.06 47.5426 213.09C47.5345 213.118 47.5354 213.149 47.5451 213.178C47.5549 213.206 47.5731 213.231 47.5974 213.249C48.2079 213.744 49.4368 214.582 50.2196 214.429ZM48.0748 213.219C49.0142 213.143 50.2901 213.15 50.564 213.485C50.5866 213.518 50.5986 213.556 50.5986 213.596C50.5986 213.635 50.5866 213.674 50.564 213.706C50.5428 213.801 50.4961 213.89 50.4288 213.962C50.3615 214.034 50.2758 214.087 50.1805 214.117C49.75 214.247 48.975 213.904 48.0514 213.219H48.0748Z" fill="#12BCE3"/>
<path d="M47.9104 213.226C48.6931 213.074 50.0943 212.464 50.2586 211.795C50.2917 211.679 50.2825 211.556 50.2325 211.446C50.1825 211.336 50.0949 211.247 49.9847 211.193C49.8848 211.131 49.7725 211.089 49.6551 211.072C49.5377 211.055 49.4179 211.063 49.3037 211.094C48.3878 211.338 47.5503 212.967 47.5111 213.043C47.4981 213.065 47.4912 213.09 47.4912 213.115C47.4912 213.141 47.4981 213.166 47.5111 213.188C47.5256 213.209 47.5454 213.227 47.5686 213.239C47.5919 213.251 47.6179 213.257 47.6442 213.256C47.7337 213.254 47.8228 213.244 47.9104 213.226ZM49.4759 211.376C49.5399 211.36 49.6066 211.359 49.6714 211.371C49.7362 211.382 49.7976 211.407 49.8516 211.444C50.0238 211.551 50.016 211.65 50.0003 211.718C49.8829 212.145 48.7479 212.754 47.973 212.914C48.2861 212.388 48.881 211.528 49.4289 211.391L49.4759 211.376Z" fill="#12BCE3"/>
<path d="M87.5733 224.562C88.1251 224.607 88.6764 224.47 89.1388 224.174C89.2464 224.079 89.3283 223.96 89.3775 223.827C89.4266 223.694 89.4414 223.552 89.4206 223.412C89.4145 223.33 89.3868 223.25 89.3402 223.181C89.2937 223.112 89.2297 223.055 89.1545 223.016C88.3717 222.59 85.7573 223.884 85.4598 224.029C85.432 224.045 85.4098 224.069 85.3959 224.097C85.3819 224.126 85.3769 224.158 85.3815 224.189C85.3846 224.219 85.3977 224.247 85.419 224.269C85.4402 224.291 85.4683 224.306 85.499 224.311C86.1809 224.457 86.8753 224.541 87.5733 224.562ZM88.7396 223.245C88.8373 223.242 88.9343 223.263 89.0214 223.306C89.0537 223.319 89.0813 223.341 89.1008 223.37C89.1202 223.398 89.1307 223.431 89.131 223.466C89.1439 223.554 89.1343 223.644 89.1029 223.727C89.0715 223.811 89.0193 223.886 88.951 223.945C88.5517 224.295 87.4794 224.356 86.0312 224.12C86.8765 223.681 87.7924 223.385 88.7396 223.245Z" fill="#12BCE3"/>
<path d="M85.5456 224.341H85.6082C86.3909 223.999 87.9565 222.628 87.8077 221.905C87.8077 221.738 87.659 221.524 87.2285 221.486C87.0743 221.468 86.918 221.482 86.7696 221.526C86.6212 221.571 86.4842 221.646 86.3675 221.745C85.5847 222.408 85.3968 224.12 85.3968 224.189C85.3925 224.215 85.396 224.242 85.4072 224.267C85.4183 224.291 85.4365 224.312 85.4595 224.326C85.4862 224.339 85.516 224.344 85.5456 224.341ZM87.1111 221.76H87.205C87.4868 221.76 87.5025 221.897 87.5103 221.936C87.5807 222.369 86.5397 223.458 85.7491 223.907C85.8064 223.186 86.0968 222.501 86.5788 221.951C86.7253 221.83 86.9109 221.762 87.1033 221.76H87.1111Z" fill="#12BCE3"/>
<path d="M68.3013 20.181L69.4911 19.6328C69.4911 19.6328 69.0058 20.6834 68.3013 20.181Z" fill="#263238"/>
<path d="M57.5229 80.2023L57.0141 82.5548C56.928 82.7375 57.1628 82.905 57.4681 82.8822L84.6613 81.0246C84.9039 81.0246 85.0918 80.8799 85.0918 80.7353L85.1701 78.4133C85.1701 78.2534 84.9587 78.1316 84.6926 78.1468L57.9064 79.9816C57.8287 79.9846 57.753 80.0063 57.686 80.0449C57.6191 80.0834 57.563 80.1375 57.5229 80.2023Z" fill="white"/>
<path d="M61.4207 82.8667L60.7006 82.9124C60.5597 82.9124 60.4422 82.8591 60.4501 82.7678L60.5675 79.7225C60.5675 79.6388 60.6927 79.555 60.8336 79.5474L61.5538 79.4941C61.6947 79.4941 61.8043 79.555 61.8043 79.6388L61.6868 82.684C61.679 82.7754 61.5616 82.8515 61.4207 82.8667Z" fill="#263238"/>
<path d="M82.6966 81.4127L81.9764 81.4583C81.8355 81.4583 81.7181 81.405 81.726 81.3137L81.8434 78.2684C81.8434 78.1847 81.9686 78.1009 82.1095 78.0933L82.8297 78.04C82.9706 78.04 83.088 78.0933 83.0801 78.1847L82.9627 81.2299C82.9549 81.3213 82.8375 81.3974 82.6966 81.4127Z" fill="#263238"/>
<path d="M72.1371 82.1363L71.4248 82.182C71.2761 82.182 71.1665 82.1287 71.1665 82.0373L71.2917 78.9921C71.2917 78.9083 71.4092 78.8246 71.5579 78.817L72.2702 78.7637C72.4189 78.7637 72.5285 78.8246 72.5285 78.9083L72.4033 81.9536C72.3641 82.0449 72.2467 82.1211 72.1371 82.1363Z" fill="#263238"/>
<path d="M54.6812 51.2266C54.9473 53.1679 55.1978 55.193 55.5188 57.1648C55.8397 59.1366 56.1215 61.1312 56.505 63.0726C56.8886 65.0139 57.2878 66.9324 57.8357 68.7063C58.0657 69.5037 58.3588 70.2825 58.7124 71.0359C58.7907 71.211 58.8612 71.2871 58.9238 71.4089C58.9566 71.4645 58.9932 71.5179 59.0334 71.5688C59.1764 71.7203 59.3495 71.842 59.5422 71.9266C60.2244 72.233 60.95 72.4383 61.6948 72.5357C62.6068 72.6708 63.5276 72.742 64.4501 72.7488C66.4403 72.7601 68.4294 72.6559 70.4069 72.4367C72.4264 72.2311 74.4616 71.9342 76.4968 71.5764C78.532 71.2186 80.5828 70.8151 82.5789 70.4344L83.5808 73.4797C81.5535 74.2791 79.5339 74.9262 77.4753 75.5581C75.4166 76.19 73.3266 76.6924 71.2132 77.1416C69.0301 77.6178 66.8142 77.9384 64.5831 78.1009C63.4001 78.1843 62.2124 78.1843 61.0294 78.1009C59.6848 78.0108 58.3636 77.7126 57.1156 77.2177C56.3384 76.8982 55.6194 76.4586 54.9865 75.9159C54.6452 75.6124 54.3309 75.2813 54.0472 74.9262C53.828 74.6141 53.5775 74.2791 53.4209 73.9974C52.7897 72.9376 52.2655 71.8209 51.8554 70.6628C51.1288 68.6126 50.5353 66.5199 50.0786 64.3973C49.6089 62.3265 49.2175 60.2633 48.8731 58.2002C48.5287 56.137 48.2547 54.0815 48.0903 51.9574L54.6812 51.2266Z" fill="#B55B52"/>
<path d="M50.5638 43.591C44.5444 45.2354 48.4582 65.9812 48.4582 65.9812L57.7887 63.4993C57.7887 63.4993 59.4404 52.4298 58.0862 49.1714C56.6772 45.7836 53.6088 42.7536 50.5638 43.591Z" fill="#12BCE3"/>
<path d="M48.0356 64.8235C48.0568 65.3738 48.1898 65.9146 48.427 66.4147C48.701 66.8105 56.9904 64.382 57.6401 64.047C58.2898 63.712 58.1959 62.334 58.1646 62.098C58.1333 61.862 47.9573 64.1536 48.0356 64.8235Z" fill="#12BCE3"/>
<path opacity="0.1" d="M48.0356 64.8235C48.0568 65.3738 48.1898 65.9146 48.427 66.4147C48.701 66.8105 56.9904 64.382 57.6401 64.047C58.2898 63.712 58.1959 62.334 58.1646 62.098C58.1333 61.862 47.9573 64.1536 48.0356 64.8235Z" fill="black"/>
<path d="M210.741 53.168C201.173 46.4378 189.249 43.6795 177.59 45.4998C165.932 47.3201 155.494 53.57 148.574 62.8748C139.002 56.1875 127.095 53.4638 115.463 55.3006C103.83 57.1373 93.4205 63.3848 86.5159 72.6735C79.6112 81.9623 76.7746 93.5346 78.6279 104.854C80.4811 116.173 86.873 126.316 96.4025 133.06L168.558 183.809L220.737 113.631C227.655 104.324 230.488 92.7253 228.614 81.3862C226.739 70.0472 220.31 59.8968 210.741 53.168Z" fill="#12BCE3"/>
<path opacity="0.2" d="M210.741 53.168C201.173 46.4378 189.249 43.6795 177.59 45.4998C165.932 47.3201 155.494 53.57 148.574 62.8748C139.002 56.1875 127.095 53.4638 115.463 55.3006C103.83 57.1373 93.4205 63.3848 86.5159 72.6735C79.6112 81.9623 76.7746 93.5346 78.6279 104.854C80.4811 116.173 86.873 126.316 96.4025 133.06L168.558 183.809L220.737 113.631C227.655 104.324 230.488 92.7253 228.614 81.3862C226.739 70.0472 220.31 59.8968 210.741 53.168Z" fill="white"/>
<path d="M92.8021 71.3711L89.992 76.0379L84.7944 74.835L87.8394 69.0947L92.8021 71.3711Z" fill="#B55B52"/>
<path d="M81.6007 70.4881L87.8628 69.1025L84.8178 74.8428C84.8178 74.8428 80.6222 74.9494 79.2837 72.6579L80.5674 71.1353C80.8283 70.8139 81.1919 70.5862 81.6007 70.4881Z" fill="#B55B52"/>
</svg>
