<svg width="253" height="269" viewBox="0 0 253 269" fill="none" xmlns="http://www.w3.org/2000/svg">
<path d="M77.4854 261.878L84.4919 262.623L85.8061 247.513L78.7996 246.776L77.4854 261.878Z" fill="#EEC1BB"/>
<path d="M42.5366 261.376H49.3255L49.8863 245.646H43.0891L42.5366 261.376Z" fill="#EEC1BB"/>
<path d="M50.2625 260.589H42.0171C41.883 260.589 41.753 260.635 41.6481 260.719C41.5433 260.802 41.4697 260.919 41.4395 261.049L40.1002 267.093C40.0455 267.353 40.0958 267.624 40.2401 267.846C40.3844 268.069 40.6109 268.226 40.8703 268.282H41.0963C43.7583 268.24 45.7004 268.073 49.0571 268.073C51.1164 268.073 57.3444 268.29 60.1905 268.29C63.0367 268.29 63.4134 265.478 62.2498 265.218C57.0179 264.071 53.0417 262.498 51.3675 260.991C51.0599 260.728 50.6673 260.585 50.2625 260.589Z" fill="#263238"/>
<path d="M50.7316 261.526C50.6994 261.52 50.67 261.503 50.6475 261.479C50.6251 261.455 50.6106 261.425 50.606 261.392C50.6023 261.361 50.6083 261.328 50.6233 261.3C50.6382 261.272 50.6614 261.248 50.6898 261.233C50.9241 261.074 53.1173 259.735 53.8707 260.12C53.9563 260.16 54.0282 260.224 54.0773 260.304C54.1265 260.385 54.1507 260.478 54.147 260.572C54.1652 260.728 54.1442 260.887 54.0857 261.033C54.0272 261.179 53.9332 261.308 53.8121 261.409C53.4275 261.666 52.9677 261.787 52.5063 261.752C51.9081 261.744 51.3128 261.668 50.7316 261.526ZM51.192 261.3C51.9848 261.564 52.8477 261.523 53.6112 261.183C53.6917 261.112 53.7536 261.022 53.7916 260.921C53.8295 260.821 53.8423 260.712 53.8289 260.606C53.8289 260.472 53.7703 260.413 53.7284 260.413C53.6601 260.393 53.5875 260.393 53.5191 260.413C52.6948 260.561 51.9054 260.862 51.192 261.3Z" fill="#12BCE3"/>
<path d="M50.6897 261.559C50.6651 261.544 50.6447 261.523 50.6301 261.499C50.6155 261.474 50.6072 261.446 50.606 261.417C50.606 261.317 50.7817 259.366 51.5686 258.73C51.6594 258.648 51.7672 258.586 51.8844 258.55C52.0015 258.514 52.1252 258.504 52.2467 258.521C52.3693 258.52 52.4883 258.563 52.583 258.641C52.6777 258.719 52.7423 258.827 52.7657 258.948C52.908 259.659 51.5519 261.158 50.8487 261.534H50.7734C50.7484 261.55 50.7194 261.559 50.6897 261.559ZM51.7779 258.922C51.2866 259.525 50.9941 260.265 50.9408 261.04C51.6356 260.513 52.4978 259.366 52.4141 258.948C52.4141 258.948 52.4141 258.78 52.1797 258.78H52.1044C51.9823 258.788 51.8669 258.839 51.7779 258.922Z" fill="#12BCE3"/>
<path d="M85.262 260.396H77.0166C76.8813 260.397 76.7504 260.444 76.6454 260.529C76.5404 260.615 76.4676 260.733 76.439 260.865L75.0996 266.909C75.0476 267.169 75.1003 267.438 75.2461 267.659C75.3918 267.88 75.619 268.035 75.8781 268.089C75.9504 268.098 76.0235 268.098 76.0958 268.089C78.7661 268.048 80.7082 267.88 84.0566 267.88C86.1159 267.88 92.3439 268.098 95.19 268.098C98.0361 268.098 98.4128 265.285 97.2493 265.026C92.0174 263.887 88.083 262.305 86.367 260.84C86.0681 260.558 85.6732 260.399 85.262 260.396Z" fill="#263238"/>
<path d="M85.6974 261.309C85.6662 261.302 85.638 261.285 85.6169 261.261C85.5959 261.237 85.583 261.207 85.5802 261.175C85.5731 261.144 85.5767 261.112 85.5904 261.083C85.604 261.054 85.627 261.03 85.6556 261.016C85.8983 260.866 88.0915 259.518 88.8365 259.903C88.9221 259.943 88.994 260.007 89.0432 260.087C89.0923 260.167 89.1166 260.261 89.1128 260.355C89.1334 260.511 89.1135 260.671 89.0548 260.817C88.9962 260.964 88.9008 261.093 88.7779 261.192C88.3987 261.454 87.9397 261.576 87.4804 261.535C86.8795 261.527 86.2814 261.451 85.6974 261.309ZM86.1662 261.083C86.959 261.347 87.8219 261.306 88.5854 260.966C88.6656 260.895 88.7267 260.805 88.7633 260.704C88.7998 260.603 88.8106 260.494 88.7947 260.388C88.7947 260.254 88.7361 260.196 88.6942 260.196C88.6303 260.161 88.5573 260.146 88.485 260.154C87.6599 260.313 86.8728 260.628 86.1662 261.083Z" fill="#12BCE3"/>
<path d="M85.6554 261.342C85.6299 261.329 85.6091 261.308 85.5956 261.283C85.5822 261.257 85.5768 261.229 85.58 261.2C85.58 261.108 85.7475 259.149 86.5343 258.513C86.6276 258.432 86.7369 258.371 86.8552 258.335C86.9735 258.299 87.098 258.288 87.2207 258.304C87.3428 258.302 87.4615 258.344 87.5552 258.423C87.6489 258.501 87.7114 258.61 87.7314 258.731C87.8737 259.451 86.5176 260.941 85.8144 261.317H85.7391C85.7279 261.327 85.7146 261.335 85.7001 261.339C85.6856 261.344 85.6703 261.345 85.6554 261.342ZM86.7436 258.706C86.2521 259.311 85.9597 260.054 85.9065 260.832C86.6013 260.304 87.4719 259.158 87.3798 258.731C87.3798 258.689 87.3798 258.563 87.1454 258.563H87.0701C86.9458 258.576 86.8302 258.632 86.7436 258.722V258.706Z" fill="#12BCE3"/>
<path opacity="0.2" d="M78.7997 246.776L85.8062 247.513L85.1198 255.306L78.1133 254.57L78.7997 246.776Z" fill="black"/>
<path opacity="0.2" d="M43.0889 245.655H49.8861L49.5931 253.767H42.7959L43.0889 245.655Z" fill="black"/>
<path d="M45.9183 107.743H81.9135C85.3373 126.444 96.0605 192.633 88.3676 251.607L76.171 250.092C76.171 250.092 77.3011 171.806 66.536 142.859C65.2971 158.354 63.8238 174.828 62.5514 183.601C59.4123 205.19 52.7071 252.36 52.7071 252.36H40.293C40.293 252.36 42.8043 207.207 44.0013 185.995C45.2905 162.967 45.8429 112.473 45.9183 107.743Z" fill="#12BCE3"/>
<path opacity="0.6" d="M45.9183 107.743H81.9135C85.3373 126.444 96.0605 192.633 88.3676 251.607L76.171 250.092C76.171 250.092 77.3011 171.806 66.536 142.859C65.2971 158.354 63.8238 174.828 62.5514 183.601C59.4123 205.19 52.7071 252.36 52.7071 252.36H40.293C40.293 252.36 42.8043 207.207 44.0013 185.995C45.2905 162.967 45.8429 112.473 45.9183 107.743Z" fill="white"/>
<path d="M93.1388 49.6902C93.1388 49.6902 106.825 49.6065 109.697 48.3173C112.568 47.0282 119.851 18.3157 119.851 18.3157C119.851 18.3157 117.867 15.8965 118.084 14.5739C118.302 13.2513 120.738 0 122.061 0C123.383 0 129.435 3.53256 129.879 4.18549C130.323 4.83843 128.556 17.1773 127.669 18.299C127.081 19.0142 126.38 19.6278 125.593 20.1155C125.593 20.1155 120.738 55.9266 117.867 57.7849C114.995 59.6433 84.9688 64.0381 84.9688 64.0381L93.1388 49.6902Z" fill="#EEC1BB"/>
<path d="M78.6318 45.3369L99.9779 48.317L97.3326 67.294L78.6318 70.2155V45.3369Z" fill="#12BCE3"/>
<path opacity="0.2" d="M78.6318 45.3369V70.2155L80.2056 69.9727L89.9494 68.4492L97.3326 67.294L99.9779 48.317L78.6318 45.3369Z" fill="black"/>
<path opacity="0.2" d="M78.6318 59.71L80.2391 69.9728L89.9829 68.4493C86.2829 61.9199 78.6318 59.71 78.6318 59.71Z" fill="black"/>
<path opacity="0.2" d="M66.5361 142.859C68.3106 147.933 69.6575 153.147 70.5626 158.446C71.5671 144.667 67.5406 130.043 67.5406 130.043L66.5361 142.859Z" fill="black"/>
<path d="M89.7657 254.445L74.6729 252.202L75.1332 248.024L90.8372 250.084L89.7657 254.445Z" fill="#12BCE3"/>
<path d="M54.1975 252.46H39.5566V248.082L54.75 247.798L54.1975 252.46Z" fill="#12BCE3"/>
<path d="M78.6323 45.3372C78.6323 45.3372 55.7125 44.2238 38.644 48.5349C41.4496 74.9695 42.4955 101.561 41.7748 128.135L86.6517 125.037C86.6517 125.037 84.5757 67.6124 78.6323 45.3372Z" fill="#12BCE3"/>
<g opacity="0.2">
<path d="M41.7748 128.135C42.0259 118.198 42.0176 108.756 41.8418 100.083C41.6492 90.5656 41.2642 81.977 40.8372 74.6524C39.8662 58.4964 38.644 48.5349 38.644 48.5349C55.7125 44.2238 78.6323 45.3372 78.6323 45.3372C84.5757 67.6124 86.6517 125.037 86.6517 125.037L41.7748 128.135Z" fill="black"/>
</g>
<path d="M51.6689 46.225C54.9755 49.2302 63.0786 48.1168 63.0786 48.1168C63.0786 48.1168 68.1012 46.7356 67.0716 45.1535C64.0915 44.6596 62.6517 43.27 62.049 41.487C61.726 40.385 61.6236 39.2301 61.7476 38.0884C61.7942 37.4506 61.8781 36.8162 61.9988 36.1882L51.9536 28.7715C53.3013 33.6685 54.9085 42.6757 51.6689 46.225Z" fill="#EEC1BB"/>
<path opacity="0.2" d="M54.2891 33.4844C54.6825 39.4947 59.6214 41.1522 62.0406 41.4871C61.7176 40.385 61.6152 39.2301 61.7392 38.0884L54.2891 33.4844Z" fill="black"/>
<path d="M68.679 13.251C68.679 13.251 71.4498 22.3 67.0634 26.586C62.677 30.8719 60.1489 13.6444 60.1489 13.6444L68.679 13.251Z" fill="#263238"/>
<path d="M53.8873 36.054C55.1435 37.4243 56.8145 38.3449 58.644 38.6745C60.4736 39.0041 62.3607 38.7246 64.0162 37.8788C66.1791 36.8303 67.8592 34.9945 68.7123 32.7474C68.8295 32.4461 68.93 32.1196 69.0221 31.7931C70.6042 25.7828 69.9178 15.7794 63.3884 12.95C61.1597 11.972 58.6345 11.9161 56.3647 12.7945C54.0949 13.6729 52.2652 15.4142 51.2756 17.6378C50.6878 18.9515 50.421 20.3861 50.4971 21.8233C50.7398 28.5703 50.564 32.5381 53.8873 36.054Z" fill="#EEC1BB"/>
<path d="M60.6597 23.9659C60.6094 24.51 60.9192 24.962 61.2791 24.9704C61.6391 24.9787 61.9404 24.5351 61.9572 23.991C61.9739 23.4468 61.6809 22.9948 61.3293 22.9864C60.9778 22.9781 60.6764 23.4134 60.6597 23.9659Z" fill="#263238"/>
<path d="M66.8461 24.1084C66.7958 24.6442 67.1139 25.1046 67.4739 25.1046C67.8338 25.1046 68.1268 24.6777 68.1436 24.1335C68.1603 23.5894 67.8673 23.1374 67.5157 23.129C67.1642 23.1206 66.8461 23.5894 66.8461 24.1084Z" fill="#263238"/>
<path d="M64.8703 24.334C65.4815 26.0256 66.3269 27.6233 67.3816 29.0803C66.999 29.3412 66.5637 29.5147 66.1065 29.5885C65.6493 29.6623 65.1816 29.6345 64.7363 29.5072L64.8703 24.334Z" fill="#D4827D"/>
<path d="M58.7848 21.9152C58.8422 21.926 58.9015 21.9208 58.9561 21.9001C59.0107 21.8794 59.0586 21.8441 59.0945 21.798C59.3384 21.4766 59.6536 21.2163 60.0154 21.0376C60.3771 20.859 60.7754 20.7668 61.1789 20.7684C61.2207 20.773 61.263 20.7693 61.3034 20.7575C61.3438 20.7457 61.3814 20.726 61.4141 20.6995C61.4468 20.673 61.4739 20.6403 61.4939 20.6033C61.5138 20.5663 61.5263 20.5257 61.5304 20.4838C61.5375 20.3985 61.5107 20.3138 61.4559 20.2481C61.4011 20.1823 61.3226 20.1407 61.2375 20.1322C60.729 20.1174 60.2243 20.2243 59.7656 20.4442C59.3069 20.6641 58.9075 20.9905 58.6006 21.3962C58.5707 21.4258 58.547 21.461 58.5309 21.4998C58.5147 21.5386 58.5063 21.5802 58.5063 21.6223C58.5063 21.6643 58.5147 21.7059 58.5309 21.7447C58.547 21.7835 58.5707 21.8187 58.6006 21.8483C58.656 21.8846 58.719 21.9075 58.7848 21.9152Z" fill="#263238"/>
<path d="M69.5496 22.0321C69.612 22.0532 69.6797 22.0532 69.7421 22.0321C69.7807 22.0158 69.8155 21.9919 69.8445 21.9618C69.8736 21.9316 69.8962 21.8959 69.9111 21.8568C69.926 21.8177 69.9327 21.776 69.931 21.7342C69.9293 21.6924 69.9192 21.6513 69.9012 21.6136C69.6985 21.1439 69.3858 20.7299 68.9895 20.4065C68.5932 20.083 68.125 19.8597 67.6242 19.7552C67.541 19.7432 67.4565 19.7647 67.389 19.8149C67.3216 19.8651 67.2767 19.9399 67.2643 20.0231C67.2562 20.1066 67.279 20.1902 67.3283 20.2581C67.3777 20.3259 67.4502 20.3734 67.5322 20.3914C67.925 20.4862 68.2906 20.6708 68.6 20.9308C68.9094 21.1909 69.1542 21.5191 69.3152 21.8898C69.3416 21.9291 69.3762 21.9622 69.4167 21.9868C69.4572 22.0113 69.5025 22.0268 69.5496 22.0321Z" fill="#263238"/>
<path d="M55.6204 13.5781V13.6786C55.7704 15.0561 55.5508 16.4488 54.9842 17.7134C54.8685 17.9773 54.8087 18.2623 54.8087 18.5505C54.8087 18.8387 54.8685 19.1237 54.9842 19.3876C55.9971 21.857 54.6828 25.7579 52.8077 27.34C52.8077 27.34 52.724 26.2602 51.82 26.5029C50.9159 26.7457 51.3093 32.3626 53.151 35.033C53.151 35.033 50.4053 32.6723 48.7394 26.8127C47.1992 21.3883 46.9062 16.8428 47.9777 14.6998L55.6204 13.5781Z" fill="#263238"/>
<path d="M47.4335 27.2977C47.7829 28.0657 48.2809 28.7569 48.8986 29.3316C49.5164 29.9063 50.2418 30.353 51.033 30.6461C53.1425 31.4079 54.3814 29.5579 53.9126 27.4819C53.5024 25.6319 51.9287 22.9532 49.7271 23.1122C47.5256 23.2713 46.588 25.3975 47.4335 27.2977Z" fill="#EEC1BB"/>
<path d="M65.5737 30.6881C65.2849 31.5083 65.0528 32.3474 64.8789 33.1994C64.7256 33.2077 64.5719 33.2077 64.4186 33.1994C62.3342 33.1073 61.3966 32.3623 60.9948 31.5922C60.8028 31.205 60.708 30.7769 60.7186 30.3449C60.7169 30.1019 60.7478 29.8598 60.8106 29.625C62.0718 30.2546 63.4535 30.6057 64.8622 30.6546C65.2975 30.6881 65.5737 30.6881 65.5737 30.6881Z" fill="#263238"/>
<path d="M64.8615 30.6458L64.6355 31.3825C62.6767 31.2904 61.2871 30.9556 60.7178 30.3361C60.7161 30.0931 60.7471 29.851 60.8099 29.6162C62.0711 30.2458 63.4528 30.5969 64.8615 30.6458Z" fill="white"/>
<path d="M64.4179 33.1912C62.3335 33.0991 61.3959 32.3541 60.9941 31.584C61.7857 31.635 62.562 31.8248 63.2878 32.1448C63.7629 32.3694 64.1574 32.7348 64.4179 33.1912Z" fill="#DE5753"/>
<path d="M61.3046 8.72261C66.0593 7.65113 70.9229 9.25836 71.3498 12.7407C71.8353 17.0852 66.051 19.7388 61.991 18.1651C61.991 18.1651 64.5693 18.8264 65.9254 17.5038C65.9254 17.5038 60.8358 18.1651 58.5589 16.5913C59.2616 16.7676 60.0003 16.7356 60.6851 16.4993C60.6851 16.4993 54.6162 13.6615 53.2936 19.7639L47.5762 20.9108C47.5762 20.9108 46.1699 16.8508 47.166 14.8167C46.5738 15.9215 46.2606 17.1543 46.2536 18.4078C45.882 17.0369 45.8701 15.5933 46.2191 14.2164C46.5681 12.8396 47.2661 11.5759 48.2459 10.5475C51.611 6.90611 61.3046 8.72261 61.3046 8.72261Z" fill="#263238"/>
<g opacity="0.5">
<path d="M50.2128 68.918H51.4266L50.4388 76.636H49.3338L48.5553 72.4505L48.0531 76.6946H46.9397L45.4497 69.0435H46.6635L47.3834 73.1453L47.8271 69.0101H49.0409L49.7608 73.1035L50.2128 68.918Z" fill="white"/>
<path d="M52.6156 76.5442L52.3979 68.8513L55.7045 68.7676V69.9311L53.5699 69.9897L53.6285 72.0825H55.1855V73.2544L53.6201 73.2963L53.6787 75.389L55.8217 75.3304V76.494L52.6156 76.5442Z" fill="white"/>
<path d="M56.4663 67.5283H57.5378L57.4122 69.2862H56.6923L56.4663 67.5283Z" fill="white"/>
<path d="M60.1992 68.6501C60.4597 68.6175 60.7242 68.645 60.9724 68.7306C61.2206 68.8163 61.4458 68.9577 61.6307 69.144C61.9279 69.5064 62.0826 69.9648 62.066 70.4331V71.5465C62.0775 71.8075 62.0317 72.0679 61.932 72.3094C61.8322 72.5509 61.6808 72.7676 61.4884 72.9444L62.4343 76.2928H61.1787L60.4002 73.4132H60.2913H59.63L59.7054 76.3096H58.5502L58.3325 68.625L60.1992 68.6501ZM60.9443 70.4834C60.9545 70.3922 60.9435 70.2998 60.9121 70.2136C60.8807 70.1274 60.8298 70.0496 60.7633 69.9864C60.6968 69.9231 60.6165 69.8761 60.5289 69.8491C60.4412 69.822 60.3484 69.8156 60.2578 69.8304H59.5631L59.63 72.2915H60.3248C60.413 72.2896 60.4998 72.2701 60.5803 72.2342C60.6608 72.1983 60.7333 72.1466 60.7936 72.0822C60.8546 72.0193 60.9017 71.9444 60.932 71.8622C60.9622 71.7801 60.975 71.6925 60.9694 71.6051L60.9443 70.4834Z" fill="white"/>
<path d="M63.4978 76.2342L63.2886 68.5413L66.5867 68.4492V69.6128L64.4438 69.6714L64.5024 71.7725L66.0677 71.7306V72.8942L64.5107 72.9361L64.561 75.0372L66.7039 74.9786V76.1422L63.4978 76.2342Z" fill="white"/>
<path d="M69.7928 74.3092L69.5668 76.0755H68.353L69.4496 68.3574H71.0485L72.5469 76.0085H71.3247L71.0066 74.2506L69.7928 74.3092ZM70.2951 70.1237L69.9435 73.1624H70.7806L70.2951 70.1237Z" fill="white"/>
<path d="M76.6821 75.8831L73.5179 75.9752L73.3086 68.2822H74.4722L74.648 74.8116L76.6486 74.753L76.6821 75.8831Z" fill="white"/>
<path d="M80.6332 75.7737L77.4773 75.8658L77.2681 68.1729H78.4233L78.6074 74.7022L80.6081 74.6436L80.6332 75.7737Z" fill="white"/>
</g>
<path d="M47.492 79.8927H46.1777V78.6454L50.0284 78.5449V79.7838H48.7225L48.9151 86.7234H47.6761L47.492 79.8927Z" fill="white"/>
<path d="M52.3474 83.241L52.4478 86.7066H51.2089L50.9829 78.5198H52.2218L52.3139 81.9938H53.8039L53.7118 78.5282L54.9424 78.4863L55.1684 86.6732H53.9379L53.8374 83.2076L52.3474 83.241Z" fill="white"/>
<path d="M56.2734 86.5978L56.0474 78.411L59.5632 78.3105V79.5578L57.2779 79.6164L57.3449 81.8515L59.0191 81.8096V83.0485L57.3449 83.0904L57.4035 85.3254L59.6804 85.2585V86.5058L56.2734 86.5978Z" fill="white"/>
<path d="M65.5064 84.3046C65.5447 84.8272 65.4029 85.3471 65.1046 85.7779C64.9021 86.0698 64.6072 86.285 64.2675 86.389C64.0482 86.4589 63.8197 86.4956 63.5895 86.4978C63.1604 86.5216 62.7349 86.4072 62.3757 86.1713C62.0966 85.9668 61.8723 85.6965 61.7227 85.3844C61.5549 85.0231 61.4528 84.6348 61.4214 84.2376L62.5933 84.1204C62.6154 84.4964 62.7594 84.8549 63.0035 85.1417C63.0658 85.2152 63.1444 85.2731 63.2331 85.3109C63.3217 85.3487 63.418 85.3653 63.5141 85.3593C63.648 85.3532 63.7778 85.3111 63.8897 85.2375C64.0017 85.1638 64.0917 85.0613 64.1503 84.9408C64.2412 84.7747 64.2791 84.5849 64.2592 84.3967C64.2314 84.0145 64.0575 83.6578 63.7736 83.4005L62.6603 82.3876C62.3118 82.0881 62.0099 81.7382 61.7646 81.3496C61.5711 80.9976 61.4649 80.6044 61.4549 80.2028C61.432 79.8873 61.4847 79.5709 61.6084 79.2798C61.7321 78.9886 61.9234 78.7311 62.1664 78.5286C62.492 78.2772 62.8936 78.1443 63.3049 78.1519C63.7012 78.1291 64.096 78.2191 64.4433 78.4114C64.695 78.5616 64.9028 78.7752 65.046 79.0309C65.2108 79.3219 65.3134 79.644 65.3474 79.9768L64.1671 80.2195C64.1486 79.9364 64.04 79.6665 63.8573 79.4494C63.7959 79.3808 63.7192 79.3276 63.6334 79.2941C63.5476 79.2607 63.4551 79.2479 63.3634 79.2569C63.2581 79.2565 63.1549 79.2863 63.0659 79.3426C62.9769 79.399 62.9059 79.4796 62.8612 79.575C62.7642 79.7606 62.718 79.9685 62.7273 80.1777C62.7647 80.603 62.948 81.0022 63.2463 81.3078C63.4171 81.4924 63.6049 81.6605 63.8071 81.81C64.1001 82.0444 64.2926 82.2035 64.3931 82.3039C64.6719 82.5494 64.9168 82.8309 65.1214 83.141C65.1978 83.2613 65.265 83.3872 65.3223 83.5177C65.4311 83.7666 65.4935 84.0333 65.5064 84.3046Z" fill="white"/>
<path d="M67.8087 84.3958L67.5576 86.2877H66.2769L67.4404 78.0674H69.1146L70.7135 86.2124H69.416L69.0728 84.3372L67.8087 84.3958ZM68.3361 79.9509L67.9678 83.1904H68.8802L68.3361 79.9509Z" fill="white"/>
<path d="M73.0068 86.1373H71.7763L71.5503 77.9505L73.3166 77.9003L74.6308 83.76L75.5684 77.85L77.2426 77.7998L77.4686 85.9866H76.2297L76.0874 80.8468L75.2168 86.0787H74.229L72.8897 80.9808L73.0068 86.1373Z" fill="white"/>
<path d="M78.5653 85.9865L78.3477 77.7997L81.8551 77.6992V78.9381L79.5782 79.0051L79.6368 81.2401L81.311 81.1899V82.4288L79.6368 82.4791L79.7038 84.7141L81.9807 84.6471V85.886L78.5653 85.9865Z" fill="white"/>
<path d="M38.644 48.5352C38.644 48.5352 22.3708 56.069 15.3643 61.2507L23.5929 76.4106L43.9093 74.2843L38.644 48.5352Z" fill="#12BCE3"/>
<path opacity="0.2" d="M15.3643 61.2507L23.5929 76.4106L31.1268 75.6237L37.8655 74.9205L43.9177 74.2843L38.6607 48.5352C38.6607 48.5352 22.3708 56.0356 15.3643 61.2507Z" fill="black"/>
<path opacity="0.2" d="M46.3618 84.8906C45.9181 89.0761 44.0012 96.5012 41.8414 100.084C41.6489 90.5662 41.2638 81.9775 40.8369 74.6529C42.6158 72.391 43.6848 69.653 43.9091 66.7842C43.9091 66.7842 46.0018 75.3979 45.3405 78.5036C45.3405 78.4868 46.9394 79.3741 46.3618 84.8906Z" fill="black"/>
<path d="M15.6237 61.7197C15.6237 61.7197 2.61519 69.2536 0.631268 73.8493C-1.35266 78.445 1.32606 82.2203 8.85995 83.2499C16.3938 84.2795 30.6245 85.125 30.6245 85.125C30.6245 85.125 32.2987 87.3768 33.2112 87.3768C34.1236 87.3768 41.9588 87.8707 43.4154 87.3768C44.8719 86.8829 46.1862 79.9266 46.3536 78.5956C46.521 77.2647 36.4172 75.7914 34.5924 75.6239C32.7675 75.4565 30.7836 77.6079 30.7836 77.6079C30.7836 77.6079 13.4807 75.1803 13.3217 74.6613C13.1626 74.1423 21.0481 71.7398 21.0481 71.7398L15.6237 61.7197Z" fill="#EEC1BB"/>
<path d="M159.989 49.6902C159.989 49.6902 146.303 49.6065 143.431 48.3173C140.56 47.0282 133.277 18.3157 133.277 18.3157C133.277 18.3157 135.27 15.8965 135.044 14.5739C134.818 13.2513 132.398 0 131.076 0C129.753 0 123.693 3.53256 123.249 4.18549C122.805 4.83843 124.605 17.194 125.442 18.3157C126.034 19.03 126.738 19.6435 127.527 20.1322C127.527 20.1322 132.382 55.9433 135.253 57.8017C138.124 59.66 168.134 64.0297 168.134 64.0297L159.989 49.6902Z" fill="#9F5B53"/>
<path d="M174.496 45.3369L153.15 48.317L155.796 67.294L174.496 70.2155V45.3369Z" fill="#12BCE3"/>
<path opacity="0.6" d="M174.496 45.3369V70.2155L172.923 69.9727L163.179 68.4492L155.796 67.294L153.15 48.317L174.496 45.3369Z" fill="white"/>
<path opacity="0.2" d="M174.496 59.71L172.923 69.9728L163.179 68.4493C166.845 61.9199 174.496 59.71 174.496 59.71Z" fill="black"/>
<path d="M175.643 261.878L168.645 262.623L167.322 247.513L174.329 246.776L175.643 261.878Z" fill="#9F5B53"/>
<path d="M210.592 261.376H203.811L203.25 245.646H210.039L210.592 261.376Z" fill="#9F5B53"/>
<path d="M202.865 260.589H211.111C211.245 260.589 211.375 260.635 211.48 260.718C211.585 260.802 211.658 260.918 211.688 261.049L213.028 267.093C213.056 267.222 213.058 267.355 213.035 267.484C213.011 267.614 212.962 267.737 212.891 267.848C212.819 267.958 212.726 268.054 212.617 268.128C212.509 268.203 212.386 268.255 212.257 268.282H212.04C209.369 268.24 207.427 268.072 204.079 268.072C202.011 268.072 195.783 268.29 192.937 268.29C190.091 268.29 189.714 265.477 190.886 265.218C196.118 264.071 200.053 262.497 201.727 260.99C202.043 260.72 202.449 260.576 202.865 260.589Z" fill="#263238"/>
<path d="M200.622 261.778C200.16 261.813 199.701 261.692 199.316 261.435C199.196 261.333 199.103 261.204 199.044 261.058C198.986 260.912 198.964 260.754 198.981 260.597C198.979 260.504 199.005 260.411 199.053 260.331C199.102 260.251 199.173 260.187 199.257 260.145C200.011 259.76 202.204 261.1 202.447 261.259C202.474 261.274 202.496 261.298 202.51 261.326C202.523 261.355 202.528 261.387 202.522 261.418C202.518 261.449 202.505 261.479 202.484 261.503C202.463 261.527 202.435 261.544 202.405 261.552C201.821 261.694 201.223 261.769 200.622 261.778ZM199.609 260.397C199.544 260.376 199.473 260.376 199.408 260.397C199.366 260.397 199.308 260.455 199.299 260.589C199.288 260.696 199.302 260.803 199.339 260.904C199.377 261.004 199.438 261.094 199.517 261.167C200.28 261.506 201.143 261.548 201.936 261.284C201.223 260.845 200.433 260.544 199.609 260.397Z" fill="#12BCE3"/>
<path d="M202.355 261.534H202.28C201.585 261.158 200.229 259.659 200.363 258.948C200.386 258.827 200.451 258.719 200.545 258.641C200.64 258.563 200.759 258.52 200.882 258.521C201.005 258.503 201.13 258.512 201.249 258.548C201.367 258.584 201.476 258.646 201.568 258.73C202.347 259.366 202.514 261.317 202.522 261.417C202.523 261.445 202.516 261.473 202.503 261.498C202.49 261.523 202.471 261.544 202.447 261.559C202.415 261.56 202.383 261.551 202.355 261.534ZM200.991 258.78H200.915C200.706 258.78 200.689 258.906 200.681 258.948C200.597 259.383 201.459 260.513 202.163 261.04C202.105 260.266 201.813 259.527 201.325 258.923C201.233 258.839 201.115 258.789 200.991 258.78Z" fill="#12BCE3"/>
<path d="M167.9 260.396H176.145C176.281 260.397 176.411 260.444 176.516 260.529C176.621 260.615 176.694 260.733 176.723 260.865L178.062 266.909C178.089 267.037 178.091 267.169 178.067 267.298C178.042 267.427 177.993 267.549 177.922 267.659C177.85 267.768 177.758 267.863 177.65 267.937C177.542 268.011 177.42 268.063 177.292 268.089H177.066C174.404 268.048 172.462 267.88 169.105 267.88C167.046 267.88 160.818 268.098 157.972 268.098C155.126 268.098 154.749 265.285 155.913 265.026C161.144 263.887 165.121 262.305 166.795 260.84C167.096 260.562 167.49 260.404 167.9 260.396Z" fill="#263238"/>
<path d="M165.623 261.56C165.161 261.599 164.7 261.477 164.317 261.216C164.196 261.116 164.102 260.987 164.044 260.84C163.985 260.694 163.964 260.536 163.982 260.379C163.979 260.285 164.003 260.192 164.052 260.111C164.101 260.031 164.173 259.967 164.259 259.927C165.012 259.542 167.205 260.89 167.44 261.041C167.468 261.056 167.491 261.079 167.506 261.107C167.521 261.136 167.527 261.168 167.523 261.2C167.519 261.232 167.504 261.263 167.482 261.287C167.459 261.311 167.43 261.327 167.398 261.334C166.817 261.476 166.221 261.552 165.623 261.56ZM164.61 260.153C164.538 260.147 164.465 260.161 164.401 260.195C164.359 260.195 164.309 260.254 164.301 260.388C164.286 260.494 164.299 260.603 164.337 260.704C164.375 260.805 164.437 260.894 164.518 260.965C165.282 261.305 166.145 261.347 166.937 261.082C166.237 260.633 165.459 260.318 164.644 260.153H164.61Z" fill="#12BCE3"/>
<path d="M167.39 261.317H167.297C166.594 260.941 165.238 259.451 165.38 258.731C165.404 258.61 165.468 258.502 165.563 258.424C165.658 258.346 165.777 258.304 165.899 258.304C166.021 258.287 166.145 258.297 166.262 258.333C166.379 258.369 166.487 258.431 166.578 258.513C167.364 259.149 167.532 261.108 167.54 261.2C167.541 261.229 167.533 261.258 167.518 261.283C167.504 261.308 167.482 261.329 167.457 261.343C167.432 261.342 167.408 261.333 167.39 261.317ZM166.025 258.563H165.95C165.74 258.563 165.724 258.689 165.715 258.731C165.632 259.174 166.494 260.305 167.189 260.832C167.14 260.053 166.847 259.309 166.352 258.706C166.263 258.621 166.147 258.57 166.025 258.563Z" fill="#12BCE3"/>
<path opacity="0.2" d="M174.329 246.776L167.322 247.513L168.009 255.306L175.015 254.57L174.329 246.776Z" fill="black"/>
<path opacity="0.2" d="M210.039 245.655H203.25L203.543 253.767H210.332L210.039 245.655Z" fill="black"/>
<path d="M207.244 107.743H171.248C167.791 126.461 157.068 192.633 164.786 251.607L176.982 250.092C176.982 250.092 175.852 171.806 186.617 142.859C187.856 158.354 189.33 174.828 190.61 183.601C193.741 205.19 200.446 252.36 200.446 252.36H212.869C212.869 252.36 210.358 207.207 209.152 185.995C207.846 162.967 207.294 112.473 207.244 107.743Z" fill="#12BCE3"/>
<path opacity="0.2" d="M186.592 142.859C184.818 147.933 183.471 153.147 182.566 158.446C181.561 144.667 185.588 130.043 185.588 130.043L186.592 142.859Z" fill="black"/>
<path d="M163.362 254.445L178.464 252.202L177.995 248.024L162.299 250.084L163.362 254.445Z" fill="#12BCE3"/>
<path opacity="0.6" d="M163.362 254.445L178.464 252.202L177.995 248.024L162.299 250.084L163.362 254.445Z" fill="white"/>
<path d="M198.931 252.46H213.572V248.082L198.379 247.798L198.931 252.46Z" fill="#12BCE3"/>
<path opacity="0.6" d="M198.931 252.46H213.572V248.082L198.379 247.798L198.931 252.46Z" fill="white"/>
<path d="M174.504 45.3372C174.504 45.3372 197.416 44.2238 214.493 48.5349C214.493 48.5349 213.697 77.3311 218.996 102.729C219.691 106.077 215.372 108.747 215.012 115.695L166.46 125.037C166.46 125.037 168.553 67.6124 174.504 45.3372Z" fill="#12BCE3"/>
<g opacity="0.6">
<path d="M217.523 107.651C216.058 110.095 215.197 112.852 215.012 115.695L213.204 116.047L166.46 125.037C166.46 125.037 168.528 67.6124 174.479 45.3372C174.479 45.3372 197.391 44.2238 214.468 48.5349C214.468 48.5349 213.672 77.3311 218.971 102.729C219.331 104.336 218.502 105.792 217.523 107.651Z" fill="white"/>
</g>
<path d="M201.459 46.225C198.153 49.2302 190.05 48.1168 190.05 48.1168C190.05 48.1168 185.027 46.7356 186.057 45.1535C189.037 44.6596 190.477 43.27 191.079 41.487C191.411 40.3866 191.513 39.23 191.381 38.0884C191.333 37.4512 191.252 36.8169 191.138 36.1882L201.183 28.7715C199.827 33.6685 198.22 42.6757 201.459 46.225Z" fill="#9F5B53"/>
<path opacity="0.2" d="M198.831 33.4844C198.429 39.4947 193.49 41.1522 191.071 41.4871C191.402 40.3866 191.505 39.23 191.372 38.0884L198.831 33.4844Z" fill="black"/>
<path d="M183.587 17.4447C183.587 17.4447 180.858 17.001 180.75 13.5773C180.641 10.1536 183.587 10.1619 183.587 10.1619C183.587 10.1619 182.583 8.70537 184.533 5.97643C185.026 5.23729 185.785 4.71681 186.652 4.52344C187.519 4.33006 188.427 4.47872 189.187 4.93843C189.187 4.93843 191.255 1.69048 194.612 2.48573C197.969 3.28097 198.797 5.2649 198.797 5.2649C198.797 5.2649 198.797 3.28097 202.615 4.38594C206.432 5.49091 205.963 9.88568 205.963 9.88568C206.31 9.70619 206.691 9.60152 207.081 9.57842C207.472 9.55532 207.862 9.61429 208.228 9.75155C208.594 9.8888 208.928 10.1013 209.206 10.3753C209.485 10.6493 209.703 10.9787 209.847 11.3422C211.17 14.0963 208.298 18.8761 208.298 18.8761C209.159 19.1334 209.9 19.6898 210.386 20.445C210.873 21.2003 211.074 22.1045 210.952 22.9946C210.906 23.8979 210.569 24.7621 209.991 25.4578C209.413 26.1535 208.626 26.6432 207.746 26.8537C208.137 28.1167 208.099 29.4737 207.637 30.7127C206.867 32.8222 202.615 32.8222 202.615 32.8222C202.615 32.8222 201.97 34.8061 198.797 33.9272C195.625 33.0482 184.952 24.0578 184.952 24.0578C184.138 23.9115 183.385 23.5274 182.789 22.9538C182.193 22.3802 181.781 21.6429 181.603 20.8349C181.431 20.1229 181.541 19.3717 181.911 18.7394C182.281 18.1071 182.882 17.643 183.587 17.4447Z" fill="#263238"/>
<path d="M184.449 13.251C184.449 13.251 181.678 22.3 186.065 26.586C190.451 30.8719 192.996 13.6444 192.996 13.6444L184.449 13.251Z" fill="#263238"/>
<path d="M199.241 36.054C197.986 37.4237 196.317 38.3439 194.489 38.6735C192.661 39.0032 190.775 38.724 189.121 37.8789C186.954 36.8335 185.27 34.9969 184.416 32.7475C184.299 32.4461 184.198 32.1196 184.106 31.7932C182.524 25.7828 183.211 15.7795 189.74 12.9501C191.175 12.3215 192.748 12.0696 194.308 12.2183C195.868 12.367 197.364 12.9114 198.655 13.7999C199.945 14.6884 200.988 15.8916 201.684 17.2956C202.38 18.6996 202.706 20.258 202.631 21.8233C202.389 28.5703 202.564 32.5382 199.241 36.054Z" fill="#9F5B53"/>
<path d="M192.477 23.9659C192.528 24.51 192.209 24.962 191.85 24.9704C191.49 24.9787 191.188 24.5351 191.18 23.991C191.172 23.4468 191.448 22.9948 191.799 22.9864C192.151 22.9781 192.461 23.4134 192.477 23.9659Z" fill="#263238"/>
<path d="M186.291 24.1084C186.341 24.6442 186.015 25.1046 185.663 25.1046C185.312 25.1046 185.002 24.6777 184.985 24.1335C184.968 23.5894 185.261 23.1374 185.613 23.129C185.964 23.1206 186.274 23.5894 186.291 24.1084Z" fill="#263238"/>
<path d="M188.225 24.334C187.61 26.0243 186.765 27.6216 185.713 29.0803C186.094 29.3416 186.528 29.5153 186.984 29.5891C187.44 29.6629 187.906 29.635 188.35 29.5072L188.225 24.334Z" fill="#892B29"/>
<path d="M194.352 21.9152C194.293 21.9267 194.233 21.9218 194.177 21.9012C194.121 21.8805 194.071 21.8448 194.034 21.798C193.79 21.4766 193.475 21.2163 193.113 21.0376C192.751 20.859 192.353 20.7668 191.95 20.7684C191.908 20.773 191.866 20.7693 191.827 20.7573C191.787 20.7454 191.75 20.7256 191.718 20.699C191.686 20.6724 191.659 20.6397 191.64 20.6027C191.621 20.5657 191.61 20.5253 191.606 20.4838C191.602 20.442 191.605 20.3997 191.617 20.3593C191.629 20.3189 191.649 20.2813 191.675 20.2486C191.702 20.2159 191.735 20.1888 191.772 20.1688C191.809 20.1488 191.849 20.1364 191.891 20.1322C192.401 20.1174 192.907 20.2243 193.367 20.4442C193.827 20.664 194.228 20.9904 194.536 21.3962C194.589 21.4623 194.615 21.5464 194.607 21.6307C194.599 21.7151 194.559 21.7931 194.494 21.8483C194.452 21.8801 194.404 21.9029 194.352 21.9152Z" fill="#263238"/>
<path d="M189.346 32.3207C190.132 32.4198 190.93 32.3286 191.673 32.0547C192.416 31.7808 193.082 31.3323 193.616 30.7469C193.647 30.7142 193.664 30.6708 193.664 30.6255C193.664 30.5803 193.647 30.5369 193.616 30.5042C193.601 30.4892 193.583 30.4774 193.564 30.4693C193.544 30.4612 193.524 30.457 193.503 30.457C193.482 30.457 193.461 30.4612 193.441 30.4693C193.422 30.4774 193.404 30.4892 193.39 30.5042C192.882 31.0337 192.259 31.4385 191.57 31.6868C190.88 31.9352 190.142 32.0203 189.413 31.9356C189.392 31.9321 189.37 31.933 189.349 31.9384C189.327 31.9437 189.308 31.9533 189.29 31.9667C189.273 31.98 189.259 31.9968 189.248 32.016C189.238 32.0351 189.231 32.0562 189.229 32.0779C189.226 32.0995 189.227 32.1215 189.232 32.1427C189.237 32.1638 189.247 32.1837 189.26 32.201C189.274 32.2182 189.29 32.2326 189.309 32.2431C189.329 32.2536 189.35 32.2601 189.371 32.2621L189.346 32.3207Z" fill="#263238"/>
<path d="M183.579 22.0321C183.519 22.0525 183.454 22.0525 183.395 22.0321C183.356 22.0157 183.321 21.9918 183.292 21.9619C183.263 21.9319 183.239 21.8965 183.224 21.8576C183.208 21.8187 183.201 21.7771 183.201 21.7353C183.202 21.6934 183.211 21.652 183.227 21.6136C183.431 21.1447 183.744 20.7314 184.14 20.4081C184.536 20.0848 185.004 19.861 185.504 19.7552C185.587 19.7432 185.672 19.7647 185.739 19.8149C185.807 19.8651 185.852 19.9399 185.864 20.0231C185.876 20.1073 185.855 20.1929 185.805 20.2617C185.755 20.3305 185.68 20.377 185.596 20.3914C185.204 20.4849 184.839 20.6692 184.531 20.9294C184.222 21.1897 183.979 21.5186 183.821 21.8898C183.793 21.9293 183.757 21.9625 183.715 21.987C183.674 22.0115 183.627 22.0269 183.579 22.0321Z" fill="#263238"/>
<path d="M197.508 13.5781V13.6786C197.35 15.0563 197.57 16.4512 198.145 17.7134C198.258 17.9779 198.316 18.2627 198.316 18.5505C198.316 18.8383 198.258 19.123 198.145 19.3876C197.123 21.857 198.438 25.7579 200.313 27.34C200.313 27.34 200.396 26.2602 201.3 26.5029C202.205 26.7457 201.819 32.3626 199.969 35.033C199.969 35.033 202.724 32.6723 204.389 26.8127C205.921 21.3883 206.214 16.8428 205.143 14.6998L197.508 13.5781Z" fill="#263238"/>
<path d="M205.695 27.2977C205.347 28.0654 204.851 28.7566 204.235 29.3313C203.618 29.906 202.894 30.3529 202.104 30.6461C199.994 31.4079 198.755 29.5579 199.216 27.4819C199.626 25.6319 201.208 22.9532 203.401 23.1122C205.595 23.2713 206.54 25.3975 205.695 27.2977Z" fill="#9F5B53"/>
<path d="M185.638 13.8038C185.638 13.8038 185.27 15.478 186.542 15.9551C187.814 16.4322 188.802 14.8752 188.802 14.8752C188.8 15.1131 188.849 15.3486 188.946 15.566C189.042 15.7834 189.184 15.9778 189.361 16.1362C189.539 16.2946 189.748 16.4134 189.975 16.4846C190.202 16.5559 190.441 16.578 190.677 16.5494C191.23 16.4944 191.761 16.3046 192.224 15.9967C192.687 15.6888 193.067 15.2721 193.331 14.7832C193.485 15.2621 193.777 15.685 194.17 15.9991C194.563 16.3132 195.04 16.5046 195.541 16.5494C197.307 16.7336 198.186 14.6157 198.186 14.6157C198.186 14.6157 200.781 15.3859 201.417 13.6196C202.053 11.8533 202.438 7.50041 196.143 7.33299C189.848 7.16557 186.132 10.1038 185.638 13.8038Z" fill="#263238"/>
<path opacity="0.2" d="M217.523 107.651C216.059 110.095 215.198 112.853 215.012 115.696L213.204 116.047C209.437 115.712 204.163 115.009 201.761 113.703C201.761 113.703 208.901 113.536 212.049 111.192C212.049 111.192 201.384 109.417 197.441 103.767C193.498 98.1165 206.197 104.738 211.027 102.93C215.857 101.122 212.794 83.2412 212.794 83.2412C212.794 83.2412 217.138 91.8382 217.406 97.9658C217.523 100.569 217.523 104.261 217.523 107.651Z" fill="black"/>
<path d="M231.553 59.71C231.553 59.71 249.45 70.5253 252.941 77.197C254.473 80.1101 225.701 100.636 225.701 100.636C225.701 100.636 226.145 101.783 223.567 103.825C220.989 105.868 216.97 111.125 216.033 109.3C214.359 106.144 209.621 101.766 212.057 100.652C215.866 98.9783 218.201 95.1611 218.971 95.1611C220.051 95.3277 221.115 95.5853 222.152 95.9312C222.152 95.9312 240.125 79.2144 238.936 78.0759C237.747 76.9375 227.35 72.6683 227.35 72.6683L231.553 59.71Z" fill="#9F5B53"/>
<path d="M214.485 48.5352C214.485 48.5352 230.758 56.069 237.764 61.2507L229.536 76.4106L209.228 74.2843L214.485 48.5352Z" fill="#12BCE3"/>
<path opacity="0.6" d="M237.764 61.2507L229.535 76.4106L222.001 75.6237L215.263 74.9205L209.21 74.2843L214.467 48.5352C214.467 48.5352 230.757 56.0356 237.764 61.2507Z" fill="white"/>
<path opacity="0.2" d="M222.018 75.6235L215.28 74.9203C215.28 74.9203 212.316 71.5719 212.844 64.8751C212.844 64.8416 215.974 71.6305 222.018 75.6235Z" fill="black"/>
</svg>
