<svg width="95" height="28" viewBox="0 0 95 28" fill="none" xmlns="http://www.w3.org/2000/svg">
<g clip-path="url(#clip0_153_674)">
<path d="M92.6139 16.7189C92.5601 16.9886 92.4657 17.2177 92.3376 17.4198C92.2098 17.6218 92.0411 17.7838 91.8258 17.9116C91.6167 18.0331 91.3542 18.1002 91.0441 18.1002C90.741 18.1002 90.478 18.0398 90.2694 17.9116C90.061 17.7897 89.8834 17.6214 89.7504 17.4198C89.6223 17.2179 89.5279 16.9886 89.4675 16.7189C89.4081 16.4513 89.3787 16.1778 89.3798 15.9037C89.3798 15.6207 89.407 15.3376 89.4608 15.0752C89.5146 14.8055 89.6089 14.5697 89.7371 14.3676C89.8649 14.1584 90.0336 13.9969 90.2488 13.8623C90.458 13.7341 90.7206 13.6668 91.0306 13.6668C91.3337 13.6668 91.5899 13.7341 91.7987 13.8623C92.0079 13.9918 92.1853 14.1667 92.3176 14.3742C92.4524 14.583 92.5467 14.8255 92.6072 15.0885C92.6677 15.3579 92.6949 15.6274 92.6949 15.9037C92.6949 16.18 92.6677 16.4495 92.6139 16.7189ZM94.4063 14.5427C94.2782 14.0913 94.0897 13.7005 93.8336 13.3569C93.5706 13.0201 93.2473 12.7436 92.8565 12.5416C92.4655 12.3395 91.9941 12.2317 91.4484 12.2317C91.0171 12.2317 90.6261 12.3194 90.2692 12.4878C89.9119 12.6563 89.6154 12.9324 89.3863 13.3031H89.3595V12.4203H87.5537V21.7658H89.4538V18.4842H89.4806C89.7046 18.8139 90.0114 19.0788 90.3702 19.2524C90.7341 19.4276 91.1249 19.5152 91.556 19.5152C92.0615 19.5152 92.506 19.4143 92.8902 19.2188C93.2609 19.0289 93.5852 18.7597 93.8402 18.4304C94.0964 18.1002 94.2848 17.7228 94.4063 17.2917C94.5345 16.8604 94.595 16.416 94.595 15.9509C94.595 15.4591 94.5345 14.9875 94.4063 14.5359V14.5427ZM85.0339 16.7189C84.9801 16.9886 84.8857 17.2177 84.7576 17.4198C84.6294 17.622 84.4611 17.7838 84.2455 17.9116C84.0367 18.0331 83.7739 18.1002 83.4641 18.1002C83.1606 18.1002 82.9048 18.0398 82.689 17.9116C82.4807 17.7896 82.3031 17.6213 82.17 17.4198C82.0423 17.2179 81.9479 16.9886 81.8875 16.7189C81.8279 16.4513 81.7985 16.1779 81.7998 15.9037C81.7998 15.6207 81.8266 15.3376 81.8804 15.0752C81.9346 14.8055 82.0286 14.5697 82.1567 14.3676C82.2849 14.1584 82.4532 13.9969 82.6688 13.8623C82.8776 13.7341 83.1404 13.6668 83.4502 13.6668C83.7537 13.6668 84.0095 13.7341 84.2187 13.8623C84.4279 13.9917 84.6051 14.1667 84.7372 14.3742C84.872 14.583 84.9664 14.8255 85.0272 15.0885C85.0877 15.3579 85.1145 15.6274 85.1145 15.9037C85.1145 16.18 85.0877 16.4495 85.0339 16.7189ZM86.2532 13.3569C85.9972 13.0201 85.6671 12.7436 85.2763 12.5416C84.8855 12.3395 84.4139 12.2317 83.868 12.2317C83.4367 12.2317 83.0461 12.3194 82.6888 12.4878C82.3319 12.6563 82.0354 12.9324 81.8063 13.3031H81.7791V12.4203H79.9733V21.7658H81.8734V18.4842H81.9006C82.1246 18.8139 82.4314 19.0788 82.7902 19.2524C83.1537 19.4276 83.5445 19.5152 83.9756 19.5152C84.4877 19.5152 84.9257 19.4143 85.3102 19.2188C85.6807 19.0288 86.0049 18.7596 86.2598 18.4304C86.5162 18.1002 86.7048 17.7228 86.833 17.2917C86.9573 16.8556 87.0208 16.4043 87.0216 15.9509C87.0216 15.4591 86.9608 14.9875 86.833 14.5359C86.7048 14.0846 86.5162 13.6936 86.2532 13.3502V13.3569ZM73.7474 15.6477L74.9939 12.1372H75.0209L76.2271 15.6477H73.7474ZM73.9496 9.77899L70.3314 19.3399H72.4471L73.1952 17.2109H76.7729L77.4938 19.3399H79.6768L76.0992 9.77899H73.9429H73.9496ZM70.1764 16.308C70.0482 16.0923 69.8866 15.9037 69.6778 15.7556C69.4757 15.6074 69.2397 15.4926 68.9769 15.3984C68.7106 15.311 68.4409 15.2346 68.1683 15.1695C67.8988 15.1086 67.636 15.048 67.3799 14.9942C67.1238 14.9403 66.888 14.8795 66.6927 14.8122C66.4907 14.7449 66.3289 14.6574 66.2076 14.5494C66.0794 14.4415 66.0189 14.3069 66.0189 14.1318C66.0189 13.9903 66.0526 13.8756 66.1265 13.788C66.2007 13.7005 66.2884 13.6398 66.3894 13.5927C66.4905 13.5455 66.605 13.5185 66.7332 13.5052C66.8495 13.4923 66.9664 13.4856 67.0834 13.485C67.4204 13.485 67.7169 13.5524 67.9664 13.6803C68.2157 13.8083 68.3571 14.0576 68.3773 14.4214H70.1831C70.1492 13.9901 70.0349 13.6398 69.8529 13.3567C69.671 13.0735 69.442 12.8514 69.1657 12.6829C68.8894 12.5145 68.5728 12.3933 68.2223 12.3192C67.872 12.245 67.5081 12.2113 67.1308 12.2113C66.7537 12.2113 66.3897 12.2452 66.0326 12.3123C65.6755 12.3796 65.3522 12.4943 65.0693 12.6628C64.7796 12.8313 64.5503 13.0538 64.382 13.3365C64.2067 13.6195 64.1192 13.9903 64.1192 14.4347C64.1192 14.738 64.1797 14.994 64.3078 15.2028C64.4292 15.4119 64.5975 15.5869 64.7996 15.7284C65.0086 15.8632 65.2377 15.9779 65.5005 16.0653C65.7633 16.1528 66.0328 16.2272 66.3091 16.2876C66.9897 16.4291 67.5153 16.5706 67.8992 16.7121C68.2765 16.8535 68.4653 17.0692 68.4653 17.3521C68.4653 17.5206 68.4248 17.6621 68.344 17.7766C68.2649 17.8885 68.1611 17.9807 68.0407 18.046C67.9194 18.1134 67.7846 18.1607 67.6364 18.1942C67.4972 18.2259 67.3548 18.2417 67.212 18.2413C67.0233 18.2413 66.8414 18.2214 66.6729 18.174C66.4977 18.1269 66.3428 18.0592 66.2081 17.965C66.0733 17.8707 65.9655 17.7494 65.878 17.6013C65.7903 17.4531 65.7498 17.2778 65.7498 17.0757H63.9441C63.9642 17.5404 64.0656 17.9245 64.2609 18.2345C64.4495 18.5446 64.6988 18.7871 64.9953 18.9757C65.2917 19.1644 65.6354 19.299 66.0195 19.3798C66.4036 19.4608 66.7942 19.5013 67.1985 19.5013C67.5895 19.5013 67.98 19.4608 68.3575 19.3865C68.7348 19.3125 69.0718 19.1777 69.3682 18.9891C69.6647 18.8004 69.9005 18.5511 70.0825 18.2478C70.2643 17.938 70.3586 17.5608 70.3586 17.1025C70.3586 16.7792 70.2981 16.5097 70.1699 16.2939L70.1764 16.308ZM62.3131 10.3451H60.413V12.4203H59.2606V13.6936H60.413V17.777C60.413 18.1274 60.4734 18.4037 60.5881 18.6192C60.7028 18.835 60.8644 18.9965 61.0666 19.118C61.2687 19.2325 61.498 19.3133 61.7606 19.3538C62.0372 19.3949 62.3166 19.4152 62.5962 19.4143C62.7848 19.4143 62.9735 19.4076 63.1756 19.4009C63.3541 19.3949 63.5319 19.3769 63.7079 19.3469V17.8713C63.6149 17.8923 63.5203 17.9058 63.4251 17.9116C63.322 17.9197 63.2186 17.9242 63.1152 17.9251C62.7917 17.9251 62.5827 17.8713 62.4751 17.7633C62.3673 17.6556 62.3133 17.4398 62.3133 17.1234V13.6936H63.7079V12.4203H62.3133L62.3131 10.3451ZM56.8619 16.6651C56.8619 16.7727 56.8486 16.9144 56.8282 17.0964C56.8056 17.2825 56.7435 17.4617 56.6463 17.622C56.5453 17.7973 56.397 17.9455 56.1882 18.0736C55.9862 18.2014 55.6896 18.2623 55.3191 18.2623C55.1708 18.2623 55.0225 18.2486 54.8743 18.2218C54.7329 18.1946 54.6049 18.1474 54.4971 18.0803C54.3892 18.0128 54.3084 17.9253 54.2409 17.804C54.1804 17.6895 54.1466 17.548 54.1466 17.3727C54.1466 17.1907 54.1804 17.0492 54.2409 16.9281C54.3016 16.8132 54.3891 16.7189 54.4904 16.6383C54.5914 16.5641 54.7127 16.5037 54.8542 16.4565C54.9957 16.4093 55.1305 16.3755 55.2786 16.3485C55.4308 16.3223 55.5835 16.2999 55.7367 16.2812C55.8917 16.261 56.0334 16.2407 56.1749 16.2138C56.3163 16.187 56.4443 16.1532 56.5656 16.1129C56.687 16.0726 56.7879 16.0186 56.8689 15.9444V16.652L56.8619 16.6651ZM58.762 17.8038V14.1989C58.762 13.7813 58.6677 13.4443 58.4792 13.1884C58.2906 12.9322 58.0478 12.7369 57.7581 12.5955C57.4617 12.454 57.1382 12.3597 56.7811 12.3058C56.4305 12.2579 56.0772 12.2332 55.7234 12.2317C55.3391 12.2317 54.9552 12.2722 54.5779 12.3464C54.2008 12.4205 53.857 12.5483 53.5537 12.7305C53.2551 12.9081 52.9997 13.1498 52.8058 13.4381C52.6105 13.7345 52.4958 14.105 52.469 14.5497H54.3691C54.4027 14.1727 54.5307 13.9099 54.7462 13.748C54.962 13.5862 55.2516 13.5056 55.6291 13.5056C55.7976 13.5056 55.959 13.5189 56.1075 13.5392C56.2456 13.5574 56.3785 13.6032 56.4983 13.6741C56.613 13.7414 56.7005 13.8357 56.768 13.957C56.8353 14.0783 56.8689 14.2398 56.8689 14.4488C56.8756 14.6441 56.8218 14.7926 56.6936 14.9002C56.5656 15.0012 56.3972 15.0822 56.1817 15.136C55.9662 15.1898 55.7236 15.2303 55.4473 15.2573C55.171 15.2843 54.888 15.318 54.6051 15.3652C54.3221 15.4123 54.039 15.4728 53.756 15.547C53.4731 15.6211 53.2236 15.7356 53.0079 15.8908C52.7856 16.0456 52.6105 16.2477 52.469 16.497C52.3275 16.7531 52.26 17.0766 52.26 17.4674C52.26 17.8245 52.3205 18.1345 52.442 18.3904C52.5557 18.64 52.7265 18.8593 52.9406 19.0307C53.1631 19.2037 53.4171 19.3319 53.6885 19.408C53.9715 19.4888 54.2814 19.5291 54.6115 19.5291C55.0428 19.5291 55.4606 19.4686 55.8716 19.3405C56.278 19.2164 56.6465 18.9916 56.9429 18.6871C56.9496 18.8016 56.9699 18.9158 56.9901 19.0307C57.0102 19.1383 57.0439 19.253 57.0777 19.3608H59.0048C58.9172 19.2193 58.8499 19.0035 58.8162 18.7205C58.7805 18.4232 58.7625 18.124 58.7622 17.8245L58.762 17.8038ZM50.9327 13.0199C50.7441 12.7774 50.4879 12.582 50.1646 12.4471C49.8412 12.3057 49.4236 12.2382 48.9113 12.2382C48.5542 12.2382 48.1904 12.3325 47.8131 12.5145C47.4358 12.6964 47.1325 12.9929 46.8901 13.3903H46.8496V9.78565H44.9495V19.3467H46.8496V15.7151C46.8496 15.0075 46.9642 14.5022 47.2 14.1922C47.4292 13.8823 47.8064 13.7341 48.3252 13.7341C48.7766 13.7341 49.1001 13.8756 49.2752 14.1584C49.4506 14.4414 49.5449 14.866 49.5449 15.4386V19.3467H51.445V15.0885C51.445 14.6572 51.4045 14.2666 51.3303 13.9161C51.2562 13.5657 51.1213 13.2625 50.9327 13.0199ZM40.8863 16.3755H40.8593L39.2289 9.78584H37.2613L35.6036 16.2947H35.5766L34.0605 9.78584H31.9584L34.4918 19.3469H36.621L38.2111 12.8379H38.2381L39.8552 19.3469H41.944L43.0893 15.102L44.5178 9.78584H42.4559L40.8863 16.3755Z" fill="#272525"/>
<path d="M14.1366 25.101C11.8119 25.101 9.64231 24.4003 7.82988 23.2078L3.4231 24.6157L4.85158 20.3575C3.4771 18.4707 2.66873 16.1462 2.66873 13.6396C2.66873 7.31946 7.80973 2.17846 14.1299 2.17846C20.4501 2.17846 25.5911 7.31946 25.5911 13.6396C25.5911 19.9596 20.4501 25.1008 14.1299 25.1008H14.1366V25.101ZM14.1366 0.00872803C6.61 0.00872803 0.505646 6.11365 0.505646 13.6398C0.505646 16.2137 1.21989 18.6259 2.45955 20.6809L0.000198364 27.9917L7.54693 25.5728C9.56405 26.6882 11.8316 27.2725 14.1366 27.2708C21.663 27.2708 27.7675 21.1662 27.7675 13.6398C27.7673 6.11365 21.663 0.00872803 14.1366 0.00872803Z" fill="#FEFEFE"/>
<path d="M14.1366 2.17847C7.81637 2.17847 2.67537 7.31947 2.67537 13.6397C2.67537 16.1462 3.48393 18.4707 4.85842 20.3575L3.42993 24.6157L7.83653 23.2078C9.64895 24.4071 11.8118 25.101 14.1432 25.101C20.4634 25.101 25.6044 19.9598 25.6044 13.6398C25.6044 7.31966 20.4634 2.17866 14.1432 2.17866H14.1366V2.17847Z" fill="url(#paint0_linear_153_674)"/>
<path d="M10.936 8.00026C10.7137 7.468 10.5452 7.44784 10.2084 7.43415C10.0805 7.42591 9.95244 7.42147 9.82429 7.42084C9.38616 7.42084 8.92806 7.54882 8.65176 7.83178C8.31498 8.1754 7.47942 8.97711 7.47942 10.6212C7.47942 12.2654 8.67876 13.8555 8.8404 14.078C9.00888 14.3001 11.1786 17.723 14.5475 19.118C17.182 20.2095 17.9637 20.1084 18.5633 19.9804C19.4392 19.7918 20.5376 19.1446 20.8139 18.3633C21.0902 17.5815 21.0902 16.9144 21.0092 16.773C20.9284 16.6315 20.7059 16.5508 20.3691 16.3822C20.0323 16.2137 18.3948 15.4051 18.0849 15.2973C17.7816 15.1828 17.492 15.2233 17.263 15.5468C16.9395 15.9982 16.6229 16.4565 16.3668 16.7326C16.1646 16.9483 15.8343 16.9753 15.5582 16.8606C15.1876 16.7058 14.1501 16.3417 12.8697 15.203C11.8792 14.3204 11.2054 13.2223 11.0101 12.8921C10.8146 12.5554 10.99 12.3597 11.1448 12.1779C11.3133 11.9689 11.4749 11.8208 11.6434 11.6253C11.8119 11.43 11.9062 11.3288 12.014 11.0997C12.1287 10.8774 12.0477 10.6482 11.9668 10.4798C11.886 10.3113 11.2123 8.66715 10.936 8.00026Z" fill="#FEFEFE"/>
</g>
<defs>
<linearGradient id="paint0_linear_153_674" x1="-83.4759" y1="-36.2211" x2="-83.4759" y2="-35.3801" gradientUnits="userSpaceOnUse">
<stop stop-color="#6EBF61"/>
<stop offset="0.231" stop-color="#50A557"/>
<stop offset="0.522" stop-color="#2A904F"/>
<stop offset="0.812" stop-color="#50A557"/>
<stop offset="1" stop-color="#6EBF63"/>
</linearGradient>
<clipPath id="clip0_153_674">
<rect width="94.5946" height="28" fill="white"/>
</clipPath>
</defs>
</svg>
