<svg width="28" height="28" viewBox="0 0 28 28" fill="none" xmlns="http://www.w3.org/2000/svg">
<path d="M14.1366 25.101C11.8119 25.101 9.64231 24.4003 7.82988 23.2078L3.4231 24.6157L4.85158 20.3575C3.4771 18.4707 2.66873 16.1462 2.66873 13.6396C2.66873 7.31946 7.80973 2.17846 14.1299 2.17846C20.4501 2.17846 25.5911 7.31946 25.5911 13.6396C25.5911 19.9596 20.4501 25.1008 14.1299 25.1008H14.1366V25.101ZM14.1366 0.00872803C6.61 0.00872803 0.505646 6.11365 0.505646 13.6398C0.505646 16.2137 1.21989 18.6259 2.45955 20.6809L0.000198364 27.9917L7.54693 25.5728C9.56405 26.6882 11.8316 27.2725 14.1366 27.2708C21.663 27.2708 27.7675 21.1662 27.7675 13.6398C27.7673 6.11365 21.663 0.00872803 14.1366 0.00872803Z" fill="#FEFEFE"/>
<path d="M14.1366 2.17847C7.81637 2.17847 2.67537 7.31947 2.67537 13.6397C2.67537 16.1462 3.48393 18.4707 4.85842 20.3575L3.42993 24.6157L7.83653 23.2078C9.64895 24.4071 11.8118 25.101 14.1432 25.101C20.4634 25.101 25.6044 19.9598 25.6044 13.6398C25.6044 7.31966 20.4634 2.17866 14.1432 2.17866H14.1366V2.17847Z" fill="url(#paint0_linear_427_3319)"/>
<path d="M10.936 8.00026C10.7137 7.468 10.5452 7.44784 10.2084 7.43415C10.0805 7.42591 9.95244 7.42147 9.82429 7.42084C9.38616 7.42084 8.92806 7.54882 8.65176 7.83178C8.31498 8.1754 7.47942 8.97711 7.47942 10.6212C7.47942 12.2654 8.67876 13.8555 8.8404 14.078C9.00888 14.3001 11.1786 17.723 14.5475 19.118C17.182 20.2095 17.9637 20.1084 18.5633 19.9804C19.4392 19.7918 20.5376 19.1446 20.8139 18.3633C21.0902 17.5815 21.0902 16.9144 21.0092 16.773C20.9284 16.6315 20.7059 16.5508 20.3691 16.3822C20.0323 16.2137 18.3948 15.4051 18.0849 15.2973C17.7816 15.1828 17.492 15.2233 17.263 15.5468C16.9395 15.9982 16.6229 16.4565 16.3668 16.7326C16.1646 16.9483 15.8343 16.9753 15.5582 16.8606C15.1876 16.7058 14.1501 16.3417 12.8697 15.203C11.8792 14.3204 11.2054 13.2223 11.0101 12.8921C10.8146 12.5554 10.99 12.3597 11.1448 12.1779C11.3133 11.9689 11.4749 11.8208 11.6434 11.6253C11.8119 11.43 11.9062 11.3288 12.014 11.0997C12.1287 10.8774 12.0477 10.6482 11.9668 10.4798C11.886 10.3113 11.2123 8.66715 10.936 8.00026Z" fill="#FEFEFE"/>
<defs>
<linearGradient id="paint0_linear_427_3319" x1="-83.4759" y1="-36.2211" x2="-83.4759" y2="-35.3801" gradientUnits="userSpaceOnUse">
<stop stop-color="#6EBF61"/>
<stop offset="0.231" stop-color="#50A557"/>
<stop offset="0.522" stop-color="#2A904F"/>
<stop offset="0.812" stop-color="#50A557"/>
<stop offset="1" stop-color="#6EBF63"/>
</linearGradient>
</defs>
</svg>
